<?xml version="1.0" encoding="UTF-8" standalone="no"?><svg xmlns="http://www.w3.org/2000/svg" xmlns:xlink="http://www.w3.org/1999/xlink" fill="#000000" height="499.3" preserveAspectRatio="xMidYMid meet" version="1" viewBox="-1.7 -0.1 496.3 499.3" width="496.3" zoomAndPan="magnify"><g id="change1_1"><path d="M493.61,269.93c-0.83-4.56-1.74-9.13-3.78-13.26c-3.52-7.11-8.1-13.45-13.59-19.31 c-6.19-6.6-13.54-11.06-21.6-14.72c-4.75-2.16-9.75-3.21-14.87-3.87c-3.69-0.47-7.38-0.86-11.07-1.28c0.06,0.23,0.09,0.45,0.12,0.67 c-0.19-0.02-0.31-0.03-0.31-0.03l-0.1-0.05c-0.53-0.26-1.15-0.37-1.96-0.37l-0.18,0c0.01-0.22,0.03-0.44,0.04-0.66 c-0.77-3.29-0.5-6.67-0.87-10c-0.48-4.44-2.61-6.6-6.89-8.03c-3.37-1.12-6.84-1.47-10.37-1.42c-0.23,0.05-0.45,0.12-0.68,0.18 l-1.53-2.06l-0.03-0.06c-0.01-0.02-0.02-0.04-0.03-0.06c0.21-0.07,0.42-0.15,0.63-0.22c-1.52-3.16-3.93-5.77-5.63-8.79 c-4.01-7.14-9.13-13.5-13.81-20.16c-0.18-0.13-0.36-0.26-0.54-0.39l0.1-0.09c1.24-1.13,1.25-2.19,0.05-3.78 c-0.42-0.55-0.94-0.99-1.5-1.46c-0.39-0.33-0.79-0.66-1.16-1.05c-0.63-0.66-1.2-0.98-1.74-0.98c-0.55,0-1.15,0.34-1.83,1.04 l-0.14,0.14c-0.11-0.2-0.23-0.39-0.33-0.6c-1.91-0.44-2.54-2.45-4.11-3.31c-0.16-0.15-0.32-0.31-0.47-0.46l0.05-0.04 c1.23-1.03,1.72-1.63,1.75-2.13c0.03-0.49-0.38-1.17-1.43-2.34c-0.43-0.48-0.92-0.91-1.44-1.37c-0.27-0.23-0.53-0.47-0.79-0.71 c-0.87-0.81-1.47-1.17-1.95-1.17c-0.53,0-1.13,0.44-2.01,1.47l-0.08,0.09c-0.14-0.18-0.29-0.34-0.42-0.52 c-2.18-1.68-3.91-3.83-5.85-5.76c-0.64-0.63-0.4-1.29-0.01-2.03c3.52-6.64,7.05-13.28,10.47-19.98c1.99-3.91,1.9-3.96-1.91-6.27 c-0.38-0.23-0.79-0.45-1.13-0.74c-1.15-0.96-1.74-0.78-2.47,0.64c-2.34,4.6-4.87,9.1-7.33,13.64c-2.1,3.88-4.21,7.75-6.31,11.63 c0.19,0.11,0.37,0.23,0.56,0.34l0,0l-0.91,1.49c-0.13-0.21-0.27-0.41-0.38-0.63c-0.28-0.11-0.61-0.15-0.82-0.33 c-4.17-3.88-8.25-7.76-10.99-12.97c-3.19-6.09-4.88-12.38-4.74-19.22c0.16-7.97-0.21-15.93-0.51-23.9c-0.2-5.33-1.23-6.37-6.57-6.98 c-0.83-0.09-1.65-0.14-2.18-0.93c-7.04-0.01-14.09-0.02-21.13-0.03c-0.57,0.66-1.37,0.45-2.09,0.53c-4.55,0.49-6.19,2.48-6.52,7.03 c-0.77,10.41-0.11,20.86-1.07,31.26c-0.22,2.43-0.76,4.71-1.64,6.85c-2.96,7.26-7.6,13.3-13.63,18.36 c-2.53,2.12-4.75,4.61-7.33,6.69c0.26,0.07,0.52,0.13,0.77,0.2c-0.1,0.08-0.2,0.17-0.3,0.26l-1.25,1.27 c0.99,0.27,2.02,0.53,3.12,0.79l-0.15,0.64c-1.41-0.33-2.82-0.69-4.21-1.09c-1.8,1.8-3.98,3.23-5.37,5.43 c0.23,0.05,0.46,0.11,0.69,0.16c-0.04,0.07-0.1,0.12-0.14,0.19l-0.08,0.13l-0.13,0.08c-0.46,0.29-0.88,0.63-1.24,1.01 c2.13,0.42,4.28,0.87,6.36,1.3c3.32,0.7,6.75,1.42,10.16,2l-0.11,0.65c-5.9-1.02-11.71-2.4-17.59-3.51 c-1.87,1.53-3.89,2.91-5.31,4.93c0.21,0.1,0.42,0.18,0.64,0.25c-0.04,0.06-0.1,0.11-0.14,0.17l-1.26,1.48 c-0.24-0.06-0.48-0.11-0.72-0.17c-0.58,0.67-1.19,1.32-1.75,2.01c-2.63,3.22-4.5,6.9-6.53,10.49c-0.07,0.21-0.13,0.41-0.2,0.62 c-0.89-0.12-1.45-0.69-1.88-1.16c-0.18-0.2-0.37-0.38-0.59-0.55c0.08-0.21,0.16-0.43,0.25-0.64c-0.57-0.46-1.2-0.87-1.72-1.39 c-4.11-4.1-9.28-6.73-14.28-9.33c-5.85-3.03-12.15-5.2-18.68-6.73c-10.66-2.48-21.34-3.58-32.23-2.47 c-9.33,0.96-17.47,4.94-25.19,9.91c-6.11,3.92-11.56,8.67-16.82,13.66c-1.75,1.66-1.76,2.36,0.27,3.97 c0.18-0.12,0.37-0.24,0.55-0.36l0.01,0.01c0.37,0.59,0.91,1.09,1.63,1.51l0.07,0.04l0.06,0.06c0.05,0.05,0.1,0.12,0.16,0.18 c-0.21,0.09-0.42,0.19-0.62,0.29c0.78,0.78,1.3,2.33,2.79,1.25c1.18-0.86,2.55-1.17,3.86-1.65c7.81-2.87,15.85-3.53,24.01-2.1 c4.84,0.85,9.71,1.71,14.36,3.4c6.14,2.23,12.37,4.47,17.57,8.46c8.43,6.48,16.08,13.79,22.32,22.53 c4.37,6.12,8.67,12.23,12.3,18.85c4.72,8.61,8.57,17.58,11.49,26.9c3.45,11,5.33,22.37,6.93,33.78c0.16-0.51,0.3-1.03,0.44-1.55 c0.07,0.47,0.14,0.95,0.2,1.42l1.08,5.8c-0.15,0.37-0.3,0.73-0.46,1.09c-1.01,3.1-2.35,6.08-3.51,9.12 c-1.94,5.09-4.73,9.73-7.15,14.57c0.09,0.22,0.19,0.43,0.28,0.65c-0.36,0.36-0.57,0.85-0.79,1.41c-0.1,0.26-0.21,0.52-0.33,0.78 c-0.07,0.13-0.13,0.27-0.2,0.4c-0.13-0.23-0.26-0.46-0.39-0.69c-1.47,3.01-3.04,5.97-4.38,9.04c-3.76,8.61-7.43,17.27-11.13,25.91 c0.09,0.38,0.16,0.76,0.24,1.13l-1.28,3.1c-0.12,0.29-0.23,0.57-0.35,0.86c-0.08-0.37-0.16-0.74-0.25-1.11 c-3.1,7.32-5.71,14.78-7.7,22.49c-1.56,6.03-2.56,12.06-2.5,18.27c0.22,0.05,0.44,0.1,0.66,0.16l0.01,1.66 c0,0.06-0.01,0.12-0.01,0.18c-0.22-0.06-0.43-0.13-0.65-0.19c-0.04,1.69-0.38,3.42,0.42,5.04c0.22,0.01,0.43,0.04,0.65,0.06 l-0.1,1.54c-0.21-0.1-0.43-0.19-0.64-0.28c-1.4-0.19-2.84-0.25-4.2-0.61c-5.93-1.57-12-2.16-18.1-2.46 c-4.1-0.2-8.23,0.39-12.28,0.19c-3.92-0.2-7.72,0.4-11.57,0.44c-4.26,0.04-8.36,1.34-12.6,1.52c-0.33,0.08-0.66,0.18-0.98,0.28 c-3.53-1.6-7.36-2.45-11.08-3.26l-0.5-0.11c-0.33-0.07-0.66-0.11-1-0.11c-1.3,0-2.69,0.53-4.11,1.57l-0.4,0.29l-0.39-0.3 c-1.53-1.17-2.43-2.75-3.3-4.28l-0.16-0.29l0.13-0.3c1.42-3.2,1.99-6.18,1.72-9.13l-0.02-0.18c-0.08-0.9-0.15-1.75-0.72-2.13 c-0.57-0.38-1.13-0.79-1.69-1.2c-1.78-1.3-3.46-2.52-5.58-2.94c-5.38-1.07-10.43-3.02-15.32-4.92c-2.42-0.93-4.81-1.41-7.12-1.41 c-3.09,0-6.12,0.85-9.01,2.52l-0.07,0.04l-2.02,0.57l-0.19-0.61c-1.12-3.51-3.92-5.16-6.78-6.43c-2.3-1.02-4.77-1.96-7.18-1.96 c-1.95,0-3.72,0.61-5.41,1.86c-0.43,0.32-0.9,0.53-1.36,0.74c-0.37,0.17-0.72,0.33-1.02,0.53c-0.96,0.64-1.97,1.23-2.95,1.8 c-2.49,1.45-4.85,2.81-6.53,5.11l-0.23,0.31l-0.39-0.05c-0.9-0.12-1.61-0.58-2.3-1.01c-0.68-0.43-1.32-0.84-2.05-0.84 c-0.12,0-0.25,0.01-0.38,0.03l-0.15,0.03l-0.14-0.04c-3.27-0.89-6.57-0.96-9.68-0.96l-2.55,0.01c-1.87,0-4.03-0.06-5.97-0.73 c-1.44-0.5-2.91-0.76-4.37-0.76c-2.59,0-5.31,0.8-8.3,2.44c-3.01,1.65-4.21,3.66-3.89,6.52c0.09,0.82,0.19,1.65,0.29,2.47 c0.35,2.84,0.71,5.77,0.62,8.71l-0.01,0.5l-1.29,0.31c-6.44,1.68-11.44,4.12-15.74,7.7c-2.57,2.13-3.64,4.24-3.6,7.06 c0.01,0.87,0.04,1.73,0.07,2.6l0.04,1.2l0.02,2.25l-0.53,0.11c-1.98,0.39-3.13,1.74-3.75,2.8c-1.87,3.22-2.41,6.93-1.47,10.19 c0.92,3.19,3.14,5.78,6.42,7.5l0.1,0.05l0.07,0.08c0.34,0.35,0.74,0.57,1.22,0.65l0.15,0.03l0.12,0.09c1.24,0.88,2.32,1.5,3.61,1.68 l0.12,0.02l0.11,0.06c0.86,0.48,1.48,1.19,1.83,2.1l0.03,0.08l0.01,0.08c0.3,2.5,1.24,4.75,2.23,7.13c0.3,0.73,0.61,1.46,0.87,2.14 l1.16,2.39c1.65,4.88,5.27,8.55,11.38,11.55c6.47,3.18,13.56,5.4,21.67,6.79c10.67,1.83,22.07,3.61,33.65,3.61 c0.59,0,1.18,0,1.77-0.01c1.72-0.03,3.45-0.04,5.17-0.04c5.84-0.03,11.89-0.06,17.77-0.87c5.88-0.82,11.83-1.77,17.58-2.7 c8.81-1.42,15.33-3.31,21.16-6.14l0.05-0.02c0.08,0.2,0.16,0.41,0.24,0.61c3.33,4.12,6.63,8.27,11.47,10.79 c0.28,0.15,0.41,0.58,0.61,0.88c0.24,0.05,0.47,0.1,0.71,0.15l0.32,1.37l0.23,0.24l-0.19,0.44c-0.1,0.01-0.2,0.01-0.29,0.01 c-0.21,2.42,0.64,3.85,3.25,4.4c5.79,1.23,11.64,1.75,17.52,2.03c8.23,0.4,16.4-0.29,24.47-1.85c3.86-0.74,3.96-1.05,4.59-5.06 c-0.23,0.08-0.47,0.16-0.7,0.24c0.02-0.11,0.03-0.21,0.05-0.33l0.15-1.1c0.22-0.02,0.45-0.04,0.67-0.06 c0.31-0.85,0.85-1.42,1.66-1.91c7.34-4.5,11.96-10.82,13.66-19.42c0.83-4.21,1.48-8.46,2.51-12.64c-0.02-0.07-0.04-0.14-0.06-0.21 l0.66-0.06l0.8,1.75c-0.1,0.29-0.2,0.58-0.33,0.86c1.28,2.83,2.32,5.8,3.92,8.44c1.21,2.01,2.02,4.65,4.16,5.71 c2.03,1,4.05,2.15,6.27,2.87c4.12,1.33,8.31,2.34,12.52,3.34c5.86,1.4,11.76,2.55,17.69,3.51c8.02,1.29,16.09,2.21,24.2,2.9 c8.28,0.7,16.58,1.08,24.84,0.51c7.78-0.54,15.58-0.84,23.33-1.97c7.82-1.14,15.62-2.38,23.36-3.92c6.68-1.33,13.45-2.62,19.71-5.52 c2.22-1.03,4.72-1.39,6.29-3.83c3.91-6.07,6.54-12.73,9.09-19.38c3.11-8.11,5.75-16.42,7.69-24.91c0.01-0.07,0.02-0.14,0.03-0.2 l0.56-0.05c0.19,0.42,0.28,0.87,0.37,1.3c0.2,0.97,0.35,1.52,1.09,1.76c0.07-0.02,0.14-0.02,0.21-0.04 c-0.07,0.24-0.13,0.48-0.21,0.72c2.45-0.74,5.02,0.48,7.47-0.46c0.62-0.24,1.54-0.26,1.37-1.14c-0.34-1.67,0.16-3.26,0.14-4.89 c-0.06-5.04-0.39-10.06,0.69-15.09c2.01-9.4,4.08-18.68,8.63-27.33c5.45-10.37,12.35-19.6,20.18-28.21 c2.99-3.29,5.94-6.63,8.78-10.06c2.59-3.13,4.92-6.48,7.54-9.58c3.17-3.76,5.99-7.76,8.71-11.83c4.78-7.13,7.89-15.05,10.74-23.1 c1.42-4.02,2.69-8.12,3.07-12.29C494.27,280.93,494.61,275.42,493.61,269.93z M424.83,224.76c0.56,0.42,1.17,0.81,1.85,0.81 c0.12,0,0.23-0.01,0.36-0.03l0.06-0.01l0.06,0c0.09,0,0.18,0.01,0.26,0.01c-0.09,0.22-0.18,0.43-0.27,0.65 c6.75,0.06,13.13,1.94,19.27,4.42c6.43,2.59,12.37,6.18,17.61,10.8c7.39,6.51,13.16,14.24,16.6,23.47 c3.08,8.25,3.79,16.84,1.64,25.45c-2.78,11.14-7.24,21.6-13.82,31.04c-4.94,7.1-10.35,13.86-16.06,20.37 c-4.97,5.66-10.11,11.19-14.78,17.09c-3.95,5-7.43,10.36-10.71,15.87c-4.23,7.12-7.15,14.67-9.11,22.66c1.28,2.1,1.7,4.4,1.85,6.71 l-0.65,0.04c-0.1-1.43-0.31-3.2-1.02-4.94l-0.84,3.1c0.53,3.46,0.75,5.05-0.77,6.1l-0.37-0.54c1.2-0.82,1-2.14,0.48-5.59 c-0.18-2.6-0.48-5.18-1.06-7.73c-1.26-5.58-2.9-11.06-4.67-16.48c-1.19-3.63-2.42-7.29-4.36-10.63c-0.07,0.33-0.13,0.67-0.2,1 c-0.12-0.22-0.24-0.45-0.37-0.67l-0.06-0.1l-0.02-0.11c-0.14-0.7-0.33-1.37-0.57-2.01l-0.08,0.43c-0.7,3.61-1.43,7.35-2.03,11.04 l-0.64-0.11c0.74-4.49,1.63-8.96,2.49-13.43c-4.97-11.92-10.15-23.74-15.61-35.44c-0.16,0.2-0.3,0.41-0.43,0.63 c-0.05-0.12-0.11-0.23-0.16-0.35l-0.05-0.12l-0.01-0.13c-0.02-0.35-0.18-0.61-0.45-0.9c-2.04,3.41-3.41,7.14-4.6,10.67l-0.62-0.21 c1.34-3.98,2.82-7.91,5.09-11.51c-0.28-1.67-1.4-2.91-2.25-4.28c-2.84-4.56-4.57-9.64-6.67-14.53c-1.86-4.32-3.46-8.79-4.81-13.3 c-0.97-3.24-1.49-6.65-1.94-10.02c-0.7-5.25-0.81-10.56-0.44-15.83c0.51-7.23,0.67-14.55,3.62-21.38 c2.24-5.18,3.83-10.59,5.77-15.88c0.2-0.55,0.27-1.15,0.39-1.72c-0.22,0-0.44,0-0.67,0c0.01-0.07,0.03-0.13,0.05-0.21l0.7-2.04 c0.23,0.01,0.46,0.02,0.68,0.03c4.7-0.02,9.41-0.05,14.11-0.06c7.09-0.01,14.18-0.07,21.27,0.03c2.38,0.03,4.6-0.16,6.57-1.6 c0.13-0.19,0.23-0.38,0.34-0.57L424.83,224.76z M398.48,199.13l0.65,1c1.61-0.78,3.33-1.47,5.11-2.07l0.21,0.62 c-1.9,0.64-3.75,1.39-5.55,2.3c-1.71,1.49-3.5,2.92-4.45,5.07c-0.27,0.61-0.79,0.56-1.27,0.67c-0.03,0.25-0.1,0.45-0.17,0.64 l-6.25-0.77l0.38-0.55c0.26,0.01,0.51,0.02,0.77,0.03c1.03-1.49,0.8-3.28,0.93-4.91c0.18-2.39,0.69-4.83,0.03-7.25 c-6.69,1.43-13.44,2.49-20.21,3.44l-0.09-0.65c5.4-0.76,12.48-1.81,19.65-3.33l0.02-1.49c0.22-0.03,0.44-0.05,0.65-0.08 c-0.16-2.35-0.7-4.63-1.29-6.9c-0.02-0.07-0.04-0.15-0.07-0.22l0.45-0.31l1.61,1.17c0.05,0.31,0.12,0.62,0.17,0.93 c2.72,4.33,5.44,8.67,8.16,13c0.17-0.14,0.35-0.26,0.53-0.38L398.48,199.13z M298.62,58.61c-0.22-4.38,0.9-8.41,2.46-12.36 c2.12-5.38,3.78-10.91,5.63-16.38c0.78-2.32,3.23-2,5.06-2.62c0.22-0.02,0.44-0.03,0.65-0.05l-0.06-2.51c-0.22,0-0.44,0-0.66,0 c-0.96-1.4-1.94-2.8-2.89-4.21c-0.67-1-0.79-2.06-0.32-3.19c2-4.79,3.99-9.59,5.99-14.38c0.11-0.27,0.28-0.53,0.44-0.78 c0.62-1.01,1.12-2.2,2.59-2.14c1.59,0.07,2.33,1.3,2.89,2.49c1.09,2.36,1.92,4.83,3,7.2c1.12,2.43,1.62,5.11,3.08,7.4 c0.78,1.24,0.39,2.46-0.35,3.57c-0.9,1.36-1.87,2.68-2.81,4.02c-0.22,0-0.44,0-0.66,0l-0.14,2.44c0.22,0.03,0.43,0.05,0.65,0.08 c1.28,0.4,2.57,0.75,3.82,1.22c0.59,0.22,1.17,0.49,1.37,1.31c1.88,7.49,5.15,14.52,7.24,21.94c2.15,7.64,0.36,16.14-7.72,19.6 c-0.22-0.02-0.44-0.03-0.66-0.05l0.14,4.9l-19.77-0.02l0.26-5.09c-0.22,0-0.44,0-0.66,0C301.73,68.78,298.92,64.46,298.62,58.61z" fill="#ffbd59"/></g><g id="change2_1"><path d="M61.39,388.7c0.81,2.11,3.18,2.8,4.25,4.77c0.65,1.2,1.46,2.36,1.52,3.67c0.23,4.49,0.06,8.93-1.25,13.32 c-0.89,2.98-3.31,4.09-5.47,5.8c-2.82,2.23-5.29,0.6-7.61-0.11c-4.4-1.34-8.7-0.92-13.05-0.31c-0.67,0.09-1.37,0.66-1.85,1.19 c-1.53,1.68-2.8,0.77-4.28-0.13c-3.36-2.05-5.74-4.71-6.2-8.78c-0.04-0.39-0.47-0.74-0.71-1.1c0.11-3.73-0.51-7.41-0.91-11.09 c-0.39-3.6,1.53-5.69,4.23-7.17c4.12-2.26,8.43-3.4,13.2-1.73c1.91,0.67,4.11,0.71,6.17,0.7C53.44,387.71,57.45,387.63,61.39,388.7z M58.6,403.78c0.06-3.2-2.41-5.46-6.56-5.64c-2.77-0.12-5.27-0.89-7.65-2.18c-2.94-1.6-5.94-3.08-9.07-4.29 c-1.03-0.4-2.04-0.37-3.07-0.21c-0.24,0.04-0.54,0.31-0.64,0.55c-0.12,0.31,0.12,0.55,0.47,0.6c3.92,0.56,6.8,3.26,10.2,4.9 c2.61,1.26,5.12,2.88,8.16,2.81c2.47-0.06,4.48,0.91,6.33,2.4C57.32,403.15,57.69,403.94,58.6,403.78z M58.19,393.73 c1.42-0.41,2.4,0.2,3.44,0.61c0.41,0.16,0.93,0.24,1.22-0.19c0.23-0.35-0.1-0.69-0.28-1.01c-0.92-1.61-3.05-2.36-5.11-1.42 c-1.41,0.64-2.58,0.61-3.93,0.05c-1.76-0.73-3.58-1.1-5.41-0.23c-0.54,0.26-1.06,0.64-1.02,1.34c0.04,0.59,0.54,0.67,0.99,0.66 c4.32-0.11,7.81,1.62,10.65,4.79c0.35,0.39,0.84,0.76,1.37,0.35c0.46-0.36,0.4-0.97,0.25-1.47 C59.98,395.92,59.07,394.92,58.19,393.73z M37.08,398.96c-0.45,0.15-1.03,0.29-1.56,0.54c-0.22,0.1-0.48,0.44-0.46,0.65 c0.02,0.2,0.39,0.53,0.59,0.52c3.23-0.17,5.68,1.51,8.09,3.31c0.36,0.27,0.85,0.53,1.17,0.04c0.27-0.42-0.06-0.9-0.34-1.21 C42.6,400.62,40.13,399.39,37.08,398.96z M53.3,403.6c-0.4-0.06-0.76,0.04-0.99,0.37c-0.29,0.4-0.04,0.69,0.28,0.93 c1.37,1.03,2.75,2.05,4.13,3.07c0.25,0.19,0.57,0.35,0.78,0.07c0.14-0.19,0.13-0.56,0.07-0.82C57.23,405.82,54.63,403.63,53.3,403.6 z M98.69,389.05c-0.19,2-0.24,4.04-0.62,6c-0.45,2.33-1.01,4.66-2.84,6.47c-0.78,0.77-1.44,1.77-1.85,2.79 c-2.29,5.61-6.55,9.55-11.01,13.36c-1.24,1.06-2.31,2.4-3.99,2.8c-2.17,0.51-4.15,1.27-6.54-0.24c-2.53-1.6-5.74-1.89-8.99-2.27 c2.75-1.73,4.26-4.22,5.08-7.12c0.94-3.3,1.57-6.68,1.49-10.13c-0.04-1.66,0.55-2.5,2.15-2.81c2.24-0.43,4.19-1.47,6.03-2.81 c2.41-1.76,5.16-2.66,8.14-2.87c0.65-0.05,1.63-0.02,1.64-0.78c0.01-0.91-0.97-0.94-1.73-1c-3.45-0.28-6.28,1.23-8.83,3.27 c-1.93,1.55-4.32,2.01-6.43,3.12c-0.68,0.35-1.1-0.12-1.15-0.63c-0.22-2.31-1.76-3.89-2.93-5.69c2.47-3.36,6.33-4.84,9.64-7.06 c0.73-0.49,1.64-0.73,2.35-1.25c4.44-3.3,8.82-1.94,13.25,0.02C94.77,383.64,97.55,385.47,98.69,389.05z M89.91,387.95 c0.64,0.15,1.25,0.12,1.44-0.63c0.2-0.79-0.37-1.33-0.96-1.6c-2.46-1.12-5.01-1.93-7.75-1.44c-1.3,0.23-2.68,0.4-3.68,1.45 c-0.35,0.36-0.93,0.68-0.6,1.28c0.24,0.44,0.82,0.36,1.22,0.27C83.09,386.43,86.51,386.91,89.91,387.95z M72.51,409.99 c0.18-0.08,0.34-0.11,0.45-0.2c2.6-2.12,5.85-2.9,8.81-4.27c0.57-0.26,1.44-0.71,1.13-1.41c-0.32-0.72-1.26-0.75-2-0.45 c-2.34,0.97-4.69,1.94-6.98,3.02c-0.95,0.45-1.65,1.29-2.01,2.32C71.71,409.56,71.72,410.05,72.51,409.99z M90.96,394.59 c-2.97-0.61-7.9,2.4-9.3,5.46C85.01,398.41,87.18,395.69,90.96,394.59z M60.72,448.68c-1.96,2.44-4.37,4.42-6.5,6.67 c-0.79,0.83-1.62,1.26-2.76,1.13c-5.38-0.6-10.77-1.2-16.68-1.86c7.48-5.71,12.88-12.46,15.88-20.96c-0.75-0.04-1.5-0.09-2.25-0.13 c-1.67,2.73-3.31,5.47-5.02,8.17c-2.92,4.61-6.81,8.36-10.87,11.96c-0.77,0.68-1.66,0.65-2.53,0.56c-5.1-0.49-10.19-1.02-15.28-1.54 c-0.66-0.07-1.33-0.15-1.99-0.22c0.72,0.4,1.24,0.99,1.54,1.76c3.68,1.08,7.51,1.11,11.26,1.62c5.47,0.75,10.91,1.64,16.43,2.02 c5.28,0.36,10.55,0.86,15.81,1.45c6.52,0.73,13.03,1.49,19.6,1.68c5,0.15,9.99,0.36,14.98,0.65c5.6,0.32,11.22,0.49,16.8,0.09 c9.74-0.7,19.52-0.95,29.22-2.17c2.05-0.26,4.16-0.08,6.15-0.83c-0.06-0.57-0.11-1.15-0.17-1.72c-4.45,0.36-8.9,0.71-13.35,1.08 c-0.42,0.03-0.83,0.34-1.37-0.12c6.14-4.22,9.78-10.34,13.02-16.77c-0.29-1.49-0.58-2.97-0.88-4.46c-1.12,0.72-1.12,2.06-1.66,3.09 c-3.28,6.2-6.66,12.3-11.9,17.16c-1.26,1.17-2.66,1.69-4.23,1.71c-6.64,0.1-13.26,0.77-19.91,0.5c-0.28-0.01-0.56-0.07-1.1-0.14 c6.82-7.17,12.38-14.87,14.65-24.51c-0.78,0.13-1.56,0.26-2.34,0.39c-2.83,6.65-6.12,13.02-10.9,18.54 c-0.77,0.89-1.68,1.78-2.22,2.73c-1.65,2.91-4.12,3.2-7.04,3.03c-4.16-0.24-8.36,0.21-12.73-0.72c7.84-5.88,12.96-13.65,16.32-22.67 c-1.06-0.01-2.12-0.02-3.18-0.03c-0.05,2.7-2.03,4.55-3.11,6.78c-2.8,5.78-7.26,10.29-12.04,14.48c-1.41,1.24-2.86,1.54-4.86,1.4 c-4.53-0.32-9.05-0.83-13.59-1.11c-1.98-0.12-3.95-0.35-6.37-0.58c7.82-5.75,13.3-12.81,16.61-21.51c-0.86-0.6-1.82-0.29-2.75-0.32 C67.33,440.07,64.13,444.43,60.72,448.68z M93.73,407.97c1.1-2.36,2.7-4.41,4.07-6.61c2.43-3.89,3.3-8.14,2.21-12.69 c5.38-3.11,10.98-3.37,16.7-1.16c4.98,1.93,9.96,3.84,15.22,4.88c2.96,0.59,5.12,2.64,7.51,4.23c0.88,0.58,0.93,1.75,1.02,2.79 c0.3,3.32-0.44,6.45-1.78,9.46c-1.04-1.73-3.01-2.16-4.56-3.08c-5.8-3.39-12.04-5.83-18.41-7.91c-5.39-1.76-10.19-0.17-13.7,4.27 c-0.28,0.35-0.68,0.71-0.74,1.1c-0.63,4.63-4.38,4.2-7.55,4.69L93.73,407.97z M124.08,395.4c-0.47,0-0.77,0-1.07,0 c-0.72-0.01-1.44,0.15-1.55,0.95c-0.15,1.1,0.86,0.75,1.4,0.89c2,0.5,3.72,1.48,5.25,2.84c0.98,0.86,1.95,1.24,1.89-0.68 c-0.03-1.04,0.56-0.94,1.12-0.75c0.7,0.24,1.35,0.63,2,0.99c0.82,0.44,1.92,1.44,2.53,0.67c0.85-1.07-0.51-1.98-1.17-2.79 c-0.35-0.43-1.04-0.57-1.51-0.92C130.17,394.49,126.87,396.27,124.08,395.4z M103.45,395.18c2.91-1.64,5.9-1.32,8.9-0.64 c1.02,0.23,2,0.63,3.02,0.79c0.6,0.1,1.54,0.39,1.8-0.37c0.3-0.87-0.71-1.07-1.26-1.24c-2.48-0.78-4.99-1.75-7.62-1.4 C106.42,392.56,104.3,392.78,103.45,395.18z M25.91,407.22c0.26,4.89,1.79,9.01,6.46,11.47c2.63,1.38,2.52,1.71,1.12,4.44 c-0.91,1.77-1.96,2.81-4.08,3.18c-3.25,0.56-6.31,1.02-9.65,0.14c-4.44-1.18-9.05-2-13.57-0.02c-0.04-1.26-0.09-2.53-0.11-3.79 c-0.05-3.2,1.3-5.46,3.83-7.57C14.66,411.09,20.05,408.74,25.91,407.22z M25.06,425.28c-0.51-1.95-2.5-2.99-4.06-4.25 c-2-1.63-4.54-2.14-7.17-1.81c-0.51,0.06-1.19,0.13-1.13,0.79c0.07,0.73,0.81,0.51,1.27,0.51c1.52,0,2.96,0.36,4.32,0.97 c2.13,0.94,4.04,2.22,5.42,4.15c0.26,0.37,0.57,0.73,1.09,0.6C25.18,426.16,25.24,425.88,25.06,425.28z M26.97,417.45 c0.08-2.11-4.12-5.64-5.73-5.22c-0.45,0.12-0.78,0.44-0.94,0.87c-0.19,0.5,0.08,0.89,0.45,1.14c1.65,1.11,3.31,2.21,5.01,3.26 C26.22,417.79,26.9,418.11,26.97,417.45z M28,422.79c0-1-1.67-2.67-2.64-2.63c-0.47,0.02-0.9,0.16-1.02,0.66 c-0.12,0.48,2.41,2.63,3.05,2.65C27.87,423.47,28.04,423.23,28,422.79z M18.55,466.03c5.71,1.02,11.41,2.1,17.13,3.01 c1.43,0.23,1.92,0.79,1.9,2.16c-0.01,1.26-0.23,2.55,0.24,3.77c0.16,0.42,0.32,0.94,0.82,0.96c0.52,0.02,0.67-0.5,0.84-0.92 c0.52-1.22,0.31-2.51,0.3-3.77c0-1.21,0.23-1.67,1.69-1.46c3.25,0.45,6.56,0.31,9.83,0.08c0.74-0.05,2.12-0.07,2.05-1.22 c-0.06-0.92-1.26-0.8-2.06-0.89c-0.15-0.02-0.3,0-0.45-0.02c-6.29-0.67-12.6-1.05-18.84-2.12c-4.84-0.82-9.7-1.53-14.59-1.9 C17.79,464.49,18.17,465.26,18.55,466.03z M146.27,418.69c-0.87-1.6,0.2-2.22,1.42-2.49c1.53-0.35,3.08-0.19,4.45,0.72 c2.73,0.09,5.17-1.13,7.73-1.78c-3.94-1.92-8.2-2.81-12.42-3.74c-2-0.44-3.96,0.34-5.64,1.57c0.08,0.87,0.02,1.78,0.26,2.6 c0.44,1.5,0.9,2.95,0.17,4.47C143.68,419.87,144.75,418.6,146.27,418.69z M8.81,450.68c1.76-0.29,3.07-1.42,4.41-2.44 c5.98-4.56,9.97-10.63,13.09-17.35c-0.99-0.72-2.12-0.32-3.19-0.42c-1.67,4.28-4.31,7.99-7.24,11.44c-2.53,2.98-5.17,5.95-8.66,7.93 C7.67,450.29,8.19,450.57,8.81,450.68z M69.78,468.6c3.06,0.17,6.11,0.32,9.17,0.48c4.03,0.22,8.06,0.39,12.09,0.53 c7.31,0.25,14.6,1.16,21.93,0.62c1.38-0.1,1.93,0.39,1.84,1.78c-0.12,1.84-0.43,3.44-2.83,3.38c-0.52-0.01-1.06,0.32-0.96,0.99 c0.08,0.5,0.53,0.69,1,0.75c1.33,0.16,2.66,0.4,4,0.44c7.71,0.25,15.4-0.05,23.1-0.45c0.73-0.04,1.47-0.24,2.18-0.47 c0.7-0.22,1.16-0.84,1.13-1.53c-0.04-0.89-0.89-0.51-1.41-0.65c-2.22-0.63-4.44-0.11-6.66-0.05c-5.52,0.15-11.05,0.16-16.57,0.25 c-0.37,0.01-0.75,0.17-0.99-0.23c-0.76-1.31,0.9-4.41,2.39-4.42c2.54-0.02,5.08,0,7.6-0.46c2.81-0.52,5.74-0.46,8.62-1.76 c-0.84-0.71-1.58-0.82-2.41-0.77c-4.46,0.31-8.93,0.45-13.38,0.63c-7.63,0.29-15.28,0.22-22.91,0.04 c-8.14-0.18-16.27-0.95-24.42-0.85c-1.4,0.02-2.81-0.04-3.91,1.05C68.72,468.55,69.26,468.58,69.78,468.6z M68.91,476.72 c-2.99,0-5.98-0.01-8.97,0.01c-0.71,0.01-1.79-0.2-1.83,0.75c-0.03,0.9,1.12,0.73,1.78,0.95c0.34,0.11,0.75,0.01,1.11,0.1 c3.39,0.78,6.84,0.32,10.26,0.61c6.25,0.53,12.53,0.27,18.8,0.26c0.58,0,1.19-0.17,1.72-0.4c0.63-0.28,1.72-0.36,1.51-1.31 c-0.17-0.77-1.14-0.52-1.78-0.52c-7.53-0.02-15.07-0.01-22.6-0.01C68.91,477.02,68.91,476.87,68.91,476.72z M158.25,431.52 c7.67,2.15,15.46,3.26,23.46,3c6.2-0.2,12.42,0.07,18.63-0.08c6.92-0.17,13.55-2.05,20.18-3.85c0.26-0.07,0.47-0.35,0.7-0.53 c-1.18-1.08-2.6-1.69-4.08-2.25c-5.79-2.19-11.92-2.62-17.96-3.1c-9.77-0.78-19.57-1.01-29.32,0.72c-1.57,0.28-3.12,0.71-4.68,0.87 c-3.92,0.39-7.59,1.34-10.82,3.69C155.4,431.17,156.9,431.14,158.25,431.52z M139.95,431.35c-2.75-0.2-5.52,0.25-8.27-0.36 c-0.97-0.21-1.68-0.55-2.51-1.13c-2.25-1.58-4.71-0.88-7.01,0.11c-4.11,1.78-8.24,2.93-12.86,2.6c-2.89-0.21-5.89-0.09-8.89,0.4 c1.61-2.01,3.62-3.23,5.9-4.16c5.89-2.42,12.13-3.66,18.29-4.91c5-1.01,10.1,0.05,14.36,3.41 C139.3,428.66,139.62,430.01,139.95,431.35z M134.62,429.18c0.67-0.18,1.28,0.09,1.58-0.51c0.28-0.57-0.13-1-0.43-1.41 c-1.22-1.65-3.08-1.94-4.93-2.12c-0.62-0.06-1.09,0.47-1.33,1.04c-0.22,0.51,0.11,0.87,0.54,1.06 C131.6,427.92,133.17,428.57,134.62,429.18z M86.48,416.99c3.47-1.94,4.28-6.3,8.26-7.32c2.53-0.65,5.15-1.09,7.76-0.72 c7.16,1.01,10.92,8.27,10.56,14.52c-0.06,1.07-0.8,1.33-1.63,1.54c-4.52,1.19-8.82,2.81-12.1,6.35c-0.64,0.69-1.22,0.61-1.99,0.24 c-2.78-1.33-5.65-1.49-8.71-0.96c-2.33,0.41-4.77,0.18-7.16,0.24c-1.03,0.02-1.43-0.64-1.64-1.51c-0.39-1.62-1.02-3.08-2.3-4.25 c-0.75-0.69-1.06-1.55,0.46-1.87c2.14-0.45,3.73-1.88,5.25-3.29c0.96-0.89,1.93-1.26,3.21-1.22c3.87,0.1,7.79-0.28,11.55,1.06 c0.56,0.2,1.23,0.48,1.46-0.39c0.2-0.78-0.28-1.22-0.99-1.52c-3.24-1.36-6.6-0.98-9.95-0.74C88.02,417.18,87.53,417.47,86.48,416.99 z M98.06,411.15c-0.86,0.23-2.11,0.01-2.37,1.18c-0.18,0.82,0.73,1.02,1.42,1c3.95-0.08,6.71,2.11,9.21,4.79 c0.47,0.51,0.85,1.47,1.76,0.73c0.76-0.62,0.3-1.41-0.09-2.03C105.74,413.15,102.19,411.69,98.06,411.15z M97.2,421.39 c-1.31-0.05-2.52,0.38-3.74,0.73c-0.42,0.12-0.92,0.35-0.88,0.88c0.06,0.73,0.73,0.74,1.2,0.65c1.79-0.34,3.55-0.04,5.33,0.03 c0.74,0.03,1.75-0.03,1.89-0.83c0.18-1-0.94-0.97-1.59-1.16C98.71,421.48,97.94,421.48,97.2,421.39z M101.31,406.68 c1.52-5.39,6.45-8.04,12.13-6.61c2.11,0.53,4.16,1.16,6.15,2.04c3.93,1.75,8.41,2.14,12.05,4.6c3.54,2.39,6.92,5.01,7.78,9.6 c0.27,1.42,0.13,2.76-0.43,4.15c-0.69,1.73-1.66,1.89-3.28,1.41c-5.39-1.57-10.74-1.35-15.98,0.73c-3.84,1.52-3.82,1.53-4.47-2.54 c-0.44-2.74-1.54-5.26-2.83-7.85c2.29-0.54,4.26-0.01,6.21,0.76c0.61,0.24,1.39,0.69,1.79-0.09c0.45-0.87-0.34-1.47-1.01-1.7 c-1.97-0.67-4.03-1.3-6.11-0.78c-1.47,0.37-2.55,0.09-3.7-0.85C107.23,407.64,104.54,406.42,101.31,406.68z M118.58,406.56 c-0.83,0.09-1.43,0.11-2,0.25c-0.22,0.05-0.41,0.38-0.51,0.62c-0.03,0.08,0.22,0.41,0.37,0.43c3.27,0.42,6.17,2.11,9.38,2.75 c0.43,0.08,1,0.18,1.22-0.26c0.32-0.65-0.34-0.87-0.74-1.15C123.92,407.5,121.1,407.16,118.58,406.56z M125.87,413.95 c-2.08,0.62-4.53-0.24-6.35,1.59c-0.27,0.27-0.59,0.49-0.46,0.93c0.11,0.35,0.43,0.46,0.71,0.35c2.98-1.16,6.01-0.87,9.06-0.35 c0.42,0.07,0.96,0.03,1.11-0.51c0.17-0.63-0.26-1.02-0.78-1.17C128.1,414.46,127,414.23,125.87,413.95z M110.95,401.19 c-0.59,0.06-1.18,0.07-1.76,0.2c-0.4,0.09-0.6,0.48-0.52,0.86c0.05,0.24,0.3,0.61,0.5,0.63c1.63,0.23,3.09,1,4.65,1.44 c0.41,0.12,0.97,0.14,1.22-0.28c0.36-0.6-0.2-0.91-0.58-1.25C113.47,401.88,112.48,400.96,110.95,401.19z M134.37,415.02 c0.85-2.63-1.09-3.86-2.2-5.39c-0.37-0.51-1.25-0.46-1.86-0.05c-0.45,0.3-0.48,0.73-0.05,1.11 C131.71,411.93,132.55,413.75,134.37,415.02z M32.4,429.69c1.13-2.11,1.93-4.12,2.76-6.08c2.45-5.77,6.61-6.01,11.78-5.58 c4.13,0.34,7.92,2.13,11.99,2.66c2.36,0.31,4.75,0.46,7.11,0.76c5.38,0.68,8.96,3.73,11.09,8.62c0.2,0.47,0.56,0.98,0.07,1.44 c-0.44,0.41-1,0.24-1.48,0.05c-6.74-2.6-13.69-1.62-20.6-1.14c-4.33,0.3-8.64,0.12-12.91-0.54 C39.01,429.38,35.84,429.59,32.4,429.69z M48.51,429.48c0.21,0.16,0.28,0.26,0.32,0.25c6.24-1.73,12.49-3.28,18.98-1.27 c0.38,0.12,0.78,0.14,0.99-0.23c0.25-0.45,0.01-0.87-0.31-1.21c-1.38-1.44-3.2-1.62-4.97-1.45c-3.55,0.33-7.1,0.77-10.62,1.35 C51.2,427.2,49.53,427.85,48.51,429.48z M47.87,422.36c-1.9-0.19-3.63,0.12-5.1,1.35c-0.27,0.23-0.62,0.51-0.44,0.94 c0.13,0.32,0.48,0.32,0.77,0.22c3-1.04,5.86-0.79,8.6,0.88c0.38,0.23,0.93,0.28,1.24-0.12c0.32-0.42,0-0.88-0.23-1.23 C51.55,422.63,49.84,422.13,47.87,422.36z M72.59,427.87c0.08-2.21-3.05-5.21-5.31-5.09c-0.52,0.03-1.11-0.01-1.28,0.63 c-0.15,0.58,0.24,1.06,0.7,1.27c1.82,0.82,3.16,2.15,4.23,3.8c0.21,0.33,0.74,0.71,1.06,0.66 C72.61,429.05,72.58,428.39,72.59,427.87z M101.23,406.7l0.06,0.06l0.07-0.14L101.23,406.7z M93.72,407.96l-0.1,0.13 c0,0,0.12-0.11,0.12-0.11C93.73,407.97,93.72,407.96,93.72,407.96z" fill="#542f2a"/></g><g id="change3_1"><path d="M380.54,344.87c-0.45,3.44-1.6,6.76-1.77,10.25c-0.03,0.58-0.14,1.17-0.25,2.06c-2.81-3.51-5.18-7.11-8.37-9.98 c-0.33-0.3-0.62-0.65-0.96-0.94c-5.23-4.52-7.98-4.07-12.08,0.1c-2.04-9.76-4.13-19.51-6.1-29.29c-0.81-4.01-1.36-8.07-2.03-12.1 c-0.25-1.5,0.12-2.46,1.9-2.46c4.19-0.02,8.37-0.25,12.51-0.99c0.99-0.18,1.58-0.07,1.82,1.22c1.26,6.75,3.32,13.34,5.67,19.73 c2.71,7.4,5.18,15,9.37,21.8C380.39,344.44,380.46,344.67,380.54,344.87z M347.56,344.97c-2.33-13.31-4.63-26.62-6.86-39.94 c-0.28-1.67-0.9-2.27-2.59-2.18c-2.83,0.15-5.68,0.18-8.52,0.11c-1.34-0.03-1.73,0.4-1.55,1.67c0.35,2.44,0.68,4.88,0.95,7.33 c0.65,5.85,1.43,11.69,1.47,17.59c6.96,8.59,12.26,18.09,15.54,28.9c1.5-1.3,2.52-2.71,3.37-4.27 C348.39,351.18,348.1,348.05,347.56,344.97z M326.05,86.42c0.26,2.81,0.43,5.65,0.44,8.47c0.04,6.41,0.76,12.77,1.37,19.14 c0.22,2.29,1.97,1.21,3.1,1.41c1.05,0.18,1.92-0.03,1.83-1.47c-0.16-2.52-0.34-5.05-0.31-7.57c0.08-6.18-1.26-12.26-1.14-18.43 c0.06-3.12-0.55-3.98-3.08-3.99C326.45,83.56,325.87,84.46,326.05,86.42z M321.29,87.57c0.04-0.37,0.02-0.76,0.12-1.11 c0.75-2.58-1.03-2.53-2.71-2.65c-1.84-0.14-1.99,1.04-2.09,2.42c-0.56,7.23-0.04,14.45,0.12,21.68c0.04,2,0.54,3.98,0.65,5.99 c0.09,1.58,0.77,1.98,2.27,1.9c1.6-0.09,1.78-0.98,1.74-2.23c-0.03-1.12,0.04-2.24,0.04-3.36c0-7.54,0-15.08,0-22.62 C321.38,87.57,321.33,87.57,321.29,87.57z M342.15,140.67c-0.69-1.22-1.42-2.01-2.96-1.8c-1.62,0.21-3.28,0.45-4.9,0.34 c-2.08-0.14-2.35,0.52-1.72,2.36c1.19,3.48,3.31,6.47,4.87,9.75c3.47,0.02,6.87-0.46,10.23-1.34 C345.82,146.88,343.93,143.81,342.15,140.67z M328.08,141.86c-0.5-1.77-1.18-2.35-2.84-2.19c-0.59,0.06-1.19,0.02-1.78-0.01 c-1.05-0.04-1.31,0.28-1.21,1.44c0.31,3.77,1.52,7.37,2.02,11.09c2.52-0.15,5.05-0.29,7.57-0.44 C330.56,148.47,329.04,145.24,328.08,141.86z M225.22,453.51c-7.72,2.15-15.64,2.96-23.59,3.47c-7.82,0.5-15.65,0.56-23.49,0.38 c-7.45-0.18-14.84-0.94-22.17-2.34c-3.94-0.75-7.82-1.88-11.85-2.14c-0.11,0.76-0.15,1.51,0.17,2.24c0.07,0.17,0.14,0.33,0.21,0.5 c0,0-0.03-0.01-0.03-0.01c7.87,2.41,16.02,3.38,24.13,4.34c8.13,0.96,16.36,0.5,24.55,0.57c5.95,0.05,11.87-0.55,17.79-1.24 c6.45-0.75,12.78-1.9,18.98-3.82c0.51-0.8,0.57-1.66,0.39-2.57C228.6,453.09,226.84,453.06,225.22,453.51z M209.26,451.12 c-0.14,1.13,0.16,1.72,1.36,1.74c2.32,0.03,4.59-0.17,6.87-0.72c1.45-0.35,2.18-1.13,2.51-2.47c0.55-2.23,1.27-4.43,1.59-6.69 c0.57-3.96,2.69-7.6,2.43-11.72c-1.06,0.31-2.11,0.64-3.18,0.92c-2.98,0.77-5.97,1.51-8.95,2.27 C210.51,439.93,209.95,445.54,209.26,451.12z M199.39,448.99c-0.3,4.91-0.87,3.79,4.13,3.9c1.09,0.02,1.6-0.31,1.64-1.52 c0.17-5.45,1.24-10.81,1.82-16.22c-2.32-0.32-4.5,0.59-6.77,0.72C199.37,440.2,199.66,444.62,199.39,448.99z M334.23,181.43 c2.17,5.27,3.67,10.74,5.31,16.18c3.18,0.03,6.33-0.18,9.43-0.91c-0.87-6.38-3.15-12.34-5.58-18.24c-1.18-2.86-2.29-5.75-3.44-8.62 c-3.37-0.07-6.71,0.31-10.04,0.69C331.34,174.16,332.74,177.81,334.23,181.43z M360.22,359.62c0.31,1.18,0.34,2.49,1.35,3.4 c0.1-0.35,0.17-0.72,0.3-1.06c0.46-1.19,1.23-2.18,2.61-1.91c1.33,0.26,1.89,1.47,1.87,2.7c-0.02,1.26-0.7,2.29-2.09,2.48 c-1.44,0.19-2.22-0.56-2.43-1.96c-0.02-0.11-0.2-0.19-0.3-0.28c0.6,5.13,2.39,9.96,4.14,14.74c4.56,12.49,9.11,24.96,12.54,37.82 c7.22-0.91,14.4-2.07,21.53-3.52c1.26-0.26,0.63-0.97,0.49-1.47c-0.87-3.13-1.6-6.3-2.69-9.38c-2.78-7.83-5.96-15.5-9.52-22.99 c-2.86-6.01-5.9-11.94-9.7-17.48c-2.99-4.36-5.56-9-9.48-12.64c-4.9-4.56-6.28-5.01-11.38,0.58 C358.38,352.31,359.28,355.97,360.22,359.62z M337.2,389.89c1.12,9.79,1.99,19.6,3.81,29.29c1.41,0.13,2.8,0.04,4.21-0.08 c5.36-0.47,10.73-0.87,16.1-1.3c-0.52-6.93-2.24-13.63-3.81-20.37c-3.1-13.32-5.41-26.79-7.79-40.25 c-5.43,6.03-10.16,12.57-14.16,19.63C336.6,381.11,336.71,385.53,337.2,389.89z M343.77,361.46c0.9-1.17,1.04-2.17,0.42-3.55 c-1.22-2.7-2.09-5.55-3.32-8.24c-2.64-5.75-5.72-11.24-9.86-16.09c0.24,3.43,0.41,6.87,0.73,10.29c0.91,9.74,2.03,19.45,3.41,29.14 C338.02,369.15,340.85,365.27,343.77,361.46z M380.26,357.27c-0.29,1.57,0.07,2.68,0.79,3.96c3.09,5.46,6.39,10.83,9.07,16.5 c3.11,6.59,5.65,13.45,8.46,20.19c0.24,0.58,0.36,1.54,1.13,1.46c0.89-0.1,0.92-1.05,0.94-1.8c0.05-2.31,0.07-4.62,0.11-6.94 c-0.07-0.29-0.09-0.6-0.22-0.87c-3.29-6.91-5.73-14.2-9.2-21.04c-2.42-4.78-4.13-9.9-6.71-14.64c-0.99-1.82-2.25-3.69-2.48-5.9 C380.93,351.1,380.83,354.23,380.26,357.27z M402.59,400.1c-0.06,2.97,0.48,5.95,0.01,8.92c-0.35,2.18-0.08,2.47,2.15,1.89 c0.43-0.11,0.85-0.21,1.28-0.32c-0.15-0.79-0.37-1.57-0.42-2.37c-0.24-3.6-1.14-7.02-2.74-10.26 C402.31,398.62,402.61,399.38,402.59,400.1z M175.35,162.2c6.54-0.31,12.9,1.09,19.31,2.07c7.52,1.15,14.88,3.05,22.12,5.34 c4.38,1.39,8.94,2.36,12.89,4.92c0.83,0.54,1.81,0.17,2.51-0.41c0.73-0.6,0.27-1.38-0.04-2.05c-0.28-0.62-0.75-1.09-1.25-1.55 c-4.32-3.96-9.8-5.59-15.14-7.39c-7.38-2.48-15.04-3.61-22.79-4.28c-6.66-0.57-13.22-0.16-19.71,1.45c-0.82,0.2-1.56,0.41-2.16,1.74 C172.78,161.46,174.02,162.26,175.35,162.2z M326.44,63.55c-0.08,1.69,0.83,3.34,2.07,3.56c1.41,0.25,2.81-0.98,3.46-2.63 c0.38-0.97,0.33-1.89,0.24-2.85c-0.09-0.97-0.25-1.93-0.31-2.89c-0.5-8.12-1.93-15.97-6.18-23.1c-0.66-1.1-1.25-2.19-2.25-2.99 c-0.51-0.41-1.09-0.57-1.66-0.2c-0.59,0.39-0.55,0.96-0.33,1.59c0.53,1.55,1.02,3.11,1.5,4.67c2.08,6.79,3.74,13.65,3.47,20.82 C326.46,60.86,326.51,62.2,326.44,63.55z M358.12,167.35c-3.64,0.52-7.27,1.07-10.9,1.62c4.46,8.08,7.93,16.61,11.73,25 c0.3,0.65,0.9,1.16,1.36,1.74c4.73-0.82,9.57-0.95,14.25-2.14c0.04-0.75-0.11-1.47-0.25-2.21c-0.93-4.84-3.42-8.98-5.8-13.15 c-2.22-3.88-4.88-7.47-7.52-11.07C360.02,167.21,359.06,167.22,358.12,167.35z M343.55,161.77c0.8,1.64,1.6,3.28,2.41,4.92 c4.5-0.14,8.96-0.64,13.34-1.7c-1.36-1.67-2.72-3.34-4.08-5.02C351.33,160.57,347.44,161.17,343.55,161.77z M339.13,154.21 c0.64,1.32,1.17,2.38,1.68,3.45c0.51,1.09,1.19,1.6,2.55,1.41c3.23-0.45,6.49-0.71,9.74-1.04c-0.16-2.43-2.73-3.4-3.35-5.55 C346.26,153.18,342.65,153.23,339.13,154.21z M338.62,167.49c-0.74-1.61-1.49-3.23-2.23-4.84c-3.01-0.3-5.96,0.56-8.96,0.46 c0.47,1.61,0.95,3.21,1.42,4.82C332.13,168.28,335.38,167.97,338.62,167.49z M333.44,160.32c0.6-0.01,1.4,0.02,1.6-0.57 c0.51-1.5-0.7-2.64-1.13-3.94c-0.23-0.71-0.74-1.22-1.87-1.08c-2.28,0.3-4.62,0.22-6.93,0.3c0.46,1.78,0.93,3.57,1.39,5.35 C328.81,160.36,331.13,160.34,333.44,160.32z M320.22,6.36c-0.26-0.89-1.17-1.13-2.05-0.87c-0.82,0.24-1.23,0.88-1.09,1.72 c0.41,2.41,0.9,4.8,2.19,6.94c0.43,0.71,0.92,1.21,1.78,0.98c0.98-0.26,1.11-1.09,1.13-1.56C322.03,10.77,320.88,8.63,320.22,6.36z" fill="#f5ece2"/></g><g id="change4_1"><path d="M142.24,420.03c-2.76,1.68-4.18,3.96-3.27,7.28c-4.26-3.37-9.36-4.43-14.36-3.41 c-6.16,1.25-12.4,2.49-18.29,4.91c-2.27,0.94-4.29,2.15-5.9,4.16c3-0.49,6-0.61,8.89-0.4c4.62,0.34,8.75-0.82,12.86-2.6 c2.3-1,4.76-1.69,7.01-0.11c0.83,0.58,1.54,0.92,2.51,1.13c2.75,0.61,5.52,0.16,8.27,0.36c0.14,0.41,0.27,0.83,0.41,1.24 c-7.59,0.65-15.17,1.31-22.76,1.96c-0.78,0.13-1.56,0.26-2.34,0.39c-5.52,0.35-11.07,0.26-16.57,0.91 c-1.06-0.01-2.12-0.02-3.18-0.03c-7.79,0.17-15.57-0.37-23.36-0.53c-0.86-0.6-1.82-0.29-2.75-0.32c-6.25-0.43-12.5-0.87-18.75-1.3 c-0.75-0.04-1.5-0.09-2.25-0.13c-2.71-0.9-5.57-0.76-8.36-1.11c-4.57-0.57-9.16-1.04-13.73-1.56c-0.99-0.72-2.12-0.32-3.19-0.42 c-5.61-1.03-11.21-2.16-16.93-2.35c-0.01-0.57-0.01-1.14-0.02-1.71c4.52-1.98,9.12-1.15,13.57,0.02c3.34,0.88,6.4,0.43,9.65-0.14 c2.13-0.37,3.17-1.41,4.08-3.18c1.41-2.72,1.51-3.05-1.12-4.44c-4.67-2.46-6.21-6.58-6.46-11.47c0.27-0.07,0.55-0.13,0.82-0.2 c0.25,0.37,0.67,0.71,0.71,1.1c0.47,4.08,2.84,6.73,6.2,8.78c1.48,0.9,2.75,1.81,4.28,0.13c0.48-0.53,1.18-1.1,1.85-1.19 c4.35-0.61,8.65-1.04,13.05,0.31c2.32,0.71,4.79,2.34,7.61,0.11c2.17-1.71,4.59-2.82,5.47-5.8c1.31-4.38,1.48-8.83,1.25-13.32 c-0.07-1.32-0.87-2.48-1.52-3.67c-1.07-1.97-3.44-2.66-4.25-4.77c2-0.36,3.15,1.57,4.93,1.81c1.17,1.79,2.71,3.38,2.93,5.69 c0.05,0.51,0.47,0.98,1.15,0.63c2.11-1.1,4.5-1.57,6.43-3.12c2.55-2.04,5.38-3.55,8.83-3.27c0.76,0.06,1.74,0.09,1.73,1 c-0.01,0.76-0.99,0.73-1.64,0.78c-2.98,0.21-5.73,1.11-8.14,2.87c-1.84,1.34-3.8,2.38-6.03,2.81c-1.6,0.31-2.19,1.14-2.15,2.81 c0.09,3.44-0.54,6.82-1.49,10.13c-0.83,2.9-2.33,5.39-5.08,7.12c3.25,0.38,6.46,0.67,8.99,2.27c2.39,1.51,4.37,0.75,6.54,0.24 c1.67-0.39,2.74-1.73,3.99-2.8c4.45-3.81,8.72-7.75,11.01-13.36c0.42-1.02,1.07-2.02,1.85-2.79c1.83-1.8,2.38-4.13,2.84-6.47 c0.38-1.97,0.43-4,0.62-6c0.44-0.13,0.88-0.25,1.33-0.38c1.09,4.55,0.22,8.81-2.21,12.69c-1.37,2.19-2.97,4.25-4.07,6.61 c0,0-0.12,0.11-0.12,0.11l0.1-0.13c3.18-0.49,6.92-0.06,7.55-4.69c0.05-0.39,0.46-0.75,0.74-1.1c3.51-4.44,8.31-6.03,13.7-4.27 c6.37,2.08,12.62,4.52,18.41,7.91c1.56,0.91,3.53,1.35,4.56,3.08c0.85,1.5,1.71,3,3.13,4.08c0.08,0.87,0.02,1.78,0.26,2.6 C142.51,417.06,142.96,418.51,142.24,420.03z M101.31,406.68c3.22-0.26,5.92,0.96,8.29,2.89c1.16,0.94,2.23,1.22,3.7,0.85 c2.09-0.52,4.14,0.11,6.11,0.78c0.67,0.23,1.46,0.83,1.01,1.7c-0.41,0.78-1.18,0.33-1.79,0.09c-1.95-0.77-3.92-1.3-6.21-0.76 c1.29,2.59,2.39,5.11,2.83,7.85c0.65,4.06,0.63,4.06,4.47,2.54c5.24-2.08,10.59-2.31,15.98-0.73c1.63,0.48,2.6,0.32,3.28-1.41 c0.55-1.4,0.69-2.74,0.43-4.15c-0.86-4.59-4.24-7.21-7.78-9.6c-3.64-2.46-8.11-2.85-12.05-4.6c-1.99-0.88-4.04-1.51-6.15-2.04 c-5.68-1.43-10.61,1.22-12.08,6.54l-0.13,0.08l0.06,0.06C101.3,406.76,101.36,406.62,101.31,406.68z M86.48,416.99 c1.05,0.48,1.54,0.19,2.04,0.16c3.35-0.24,6.71-0.61,9.95,0.74c0.7,0.29,1.19,0.73,0.99,1.52c-0.23,0.87-0.9,0.58-1.46,0.39 c-3.76-1.34-7.67-0.96-11.55-1.06c-1.28-0.03-2.25,0.33-3.21,1.22c-1.52,1.41-3.11,2.84-5.25,3.29c-1.52,0.32-1.21,1.19-0.46,1.87 c1.28,1.18,1.91,2.64,2.3,4.25c0.21,0.87,0.61,1.53,1.64,1.51c2.39-0.05,4.83,0.17,7.16-0.24c3.06-0.53,5.93-0.37,8.71,0.96 c0.77,0.37,1.35,0.45,1.99-0.24c3.28-3.54,7.58-5.17,12.1-6.35c0.83-0.22,1.57-0.48,1.63-1.54c0.36-6.25-3.4-13.51-10.56-14.52 c-2.61-0.37-5.23,0.07-7.76,0.72C90.75,410.68,89.95,415.05,86.48,416.99z M32.4,429.69c3.44-0.1,6.61-0.31,9.82,0.18 c4.26,0.66,8.58,0.84,12.91,0.54c6.91-0.48,13.85-1.46,20.6,1.14c0.49,0.19,1.04,0.36,1.48-0.05c0.49-0.46,0.13-0.97-0.07-1.44 c-2.13-4.89-5.71-7.94-11.09-8.62c-2.36-0.3-4.75-0.45-7.11-0.76c-4.07-0.53-7.86-2.31-11.99-2.66c-5.17-0.43-9.33-0.19-11.78,5.58 C34.33,425.57,33.53,427.58,32.4,429.69z M52.04,398.14c-2.77-0.12-5.27-0.89-7.65-2.18c-2.94-1.6-5.94-3.08-9.07-4.29 c-1.03-0.4-2.04-0.37-3.07-0.21c-0.24,0.04-0.54,0.31-0.64,0.55c-0.12,0.31,0.12,0.55,0.47,0.6c3.92,0.56,6.8,3.26,10.2,4.9 c2.61,1.26,5.12,2.88,8.16,2.81c2.47-0.06,4.48,0.91,6.33,2.4c0.55,0.45,0.92,1.23,1.83,1.08 C58.67,400.59,56.19,398.32,52.04,398.14z M35.52,399.5c-0.22,0.1-0.48,0.44-0.46,0.65c0.02,0.2,0.39,0.53,0.59,0.52 c3.23-0.17,5.68,1.51,8.09,3.31c0.36,0.27,0.85,0.53,1.17,0.04c0.27-0.42-0.06-0.9-0.34-1.21c-1.97-2.19-4.44-3.42-7.49-3.85 C36.63,399.11,36.05,399.25,35.52,399.5z M52.3,403.97c-0.29,0.4-0.04,0.69,0.28,0.93c1.37,1.03,2.75,2.05,4.13,3.07 c0.25,0.19,0.57,0.35,0.78,0.07c0.14-0.19,0.13-0.56,0.07-0.82c-0.32-1.39-2.92-3.59-4.26-3.62 C52.9,403.54,52.54,403.64,52.3,403.97z M72.96,409.79c2.6-2.12,5.85-2.9,8.81-4.27c0.57-0.26,1.44-0.71,1.13-1.41 c-0.32-0.72-1.26-0.75-2-0.45c-2.34,0.97-4.69,1.94-6.98,3.02c-0.95,0.45-1.65,1.29-2.01,2.32c-0.2,0.57-0.19,1.06,0.6,0.99 C72.69,409.91,72.85,409.88,72.96,409.79z M81.66,400.06c3.35-1.65,5.52-4.37,9.3-5.46C87.99,393.98,83.06,396.99,81.66,400.06z M112.35,394.54c1.02,0.23,2,0.63,3.02,0.79c0.6,0.1,1.54,0.39,1.8-0.37c0.3-0.87-0.71-1.07-1.26-1.24 c-2.48-0.78-4.99-1.75-7.62-1.4c-1.87,0.25-3.98,0.47-4.84,2.87C106.36,393.54,109.35,393.87,112.35,394.54z M21.01,421.03 c-2-1.63-4.54-2.14-7.17-1.81c-0.51,0.06-1.19,0.13-1.13,0.79c0.07,0.73,0.81,0.51,1.27,0.51c1.52,0,2.96,0.36,4.32,0.97 c2.13,0.94,4.04,2.22,5.42,4.15c0.26,0.37,0.57,0.73,1.09,0.6c0.35-0.09,0.42-0.37,0.24-0.96C24.56,423.33,22.56,422.3,21.01,421.03 z M25.36,420.15c-0.47,0.02-0.9,0.16-1.02,0.66c-0.12,0.48,2.41,2.63,3.05,2.65c0.48,0.01,0.65-0.23,0.61-0.67 C28,421.78,26.33,420.12,25.36,420.15z M93.46,422.11c-0.42,0.12-0.92,0.35-0.88,0.88c0.06,0.73,0.73,0.74,1.2,0.65 c1.79-0.34,3.55-0.04,5.33,0.03c0.74,0.03,1.75-0.03,1.89-0.83c0.18-1-0.94-0.97-1.59-1.16c-0.7-0.21-1.47-0.21-2.21-0.3 C95.89,421.34,94.68,421.77,93.46,422.11z M116.58,406.8c-0.22,0.05-0.41,0.38-0.51,0.62c-0.03,0.08,0.22,0.41,0.37,0.43 c3.27,0.42,6.17,2.11,9.38,2.75c0.43,0.08,1,0.18,1.22-0.26c0.32-0.65-0.34-0.87-0.74-1.15c-2.38-1.69-5.2-2.03-7.72-2.63 C117.75,406.65,117.15,406.66,116.58,406.8z M119.52,415.54c-0.27,0.27-0.59,0.49-0.46,0.93c0.11,0.35,0.43,0.46,0.71,0.35 c2.98-1.16,6.01-0.87,9.06-0.35c0.42,0.07,0.96,0.03,1.11-0.51c0.17-0.63-0.26-1.02-0.78-1.17c-1.07-0.32-2.16-0.55-3.3-0.84 C123.78,414.57,121.34,413.71,119.52,415.54z M48.83,429.73c6.24-1.73,12.49-3.28,18.98-1.27c0.38,0.12,0.78,0.14,0.99-0.23 c0.25-0.45,0.01-0.87-0.31-1.21c-1.38-1.44-3.2-1.62-4.97-1.45c-3.55,0.33-7.1,0.77-10.62,1.35c-1.7,0.28-3.37,0.93-4.39,2.56 C48.71,429.64,48.79,429.74,48.83,429.73z M42.77,423.71c-0.27,0.23-0.62,0.51-0.44,0.94c0.13,0.32,0.48,0.32,0.77,0.22 c3-1.04,5.86-0.79,8.6,0.88c0.38,0.23,0.93,0.28,1.24-0.12c0.32-0.42,0-0.88-0.23-1.23c-1.15-1.78-2.87-2.28-4.83-2.05 C45.97,422.17,44.24,422.48,42.77,423.71z" fill="#1a1918"/></g><g id="change5_1"><path d="M149.61,478.58c-6.76,3.28-13.97,5.01-21.34,6.2c-5.86,0.94-11.72,1.89-17.59,2.7 c-7.64,1.06-15.34,0.8-23.02,0.93c-12,0.19-23.79-1.59-35.55-3.6c-7.58-1.3-14.94-3.45-21.85-6.85c-5.23-2.57-9.72-6.08-11.71-11.93 c5.71,1.02,11.41,2.1,17.13,3.01c1.43,0.23,1.92,0.79,1.9,2.16c-0.01,1.26-0.23,2.55,0.24,3.77c0.16,0.42,0.32,0.94,0.82,0.96 c0.52,0.02,0.67-0.5,0.84-0.92c0.52-1.22,0.31-2.51,0.3-3.77c0-1.21,0.23-1.67,1.69-1.46c3.25,0.45,6.56,0.31,9.83,0.08 c0.74-0.05,2.12-0.07,2.05-1.22c-0.06-0.92-1.26-0.8-2.06-0.89c-0.15-0.02-0.3,0-0.45-0.02c-6.29-0.67-12.6-1.05-18.84-2.12 c-4.84-0.82-9.7-1.53-14.59-1.9c-1.2-3.11-2.76-6.11-3.16-9.49c3.68,1.08,7.51,1.11,11.26,1.62c5.47,0.75,10.91,1.64,16.43,2.02 c5.28,0.36,10.55,0.86,15.81,1.45c6.52,0.73,13.03,1.49,19.6,1.68c5,0.15,9.99,0.36,14.98,0.65c5.6,0.32,11.22,0.49,16.8,0.09 c9.74-0.7,19.52-0.95,29.22-2.17c2.05-0.26,4.16-0.08,6.15-0.83c0.91,1.48,0.32,3.18,0.71,4.77 C146.46,468.6,147.6,473.72,149.61,478.58z M68.37,467.88c0.35,0.67,0.89,0.69,1.41,0.72c3.06,0.17,6.11,0.32,9.17,0.48 c4.03,0.22,8.06,0.39,12.09,0.53c7.31,0.25,14.6,1.16,21.93,0.62c1.38-0.1,1.93,0.39,1.84,1.78c-0.12,1.84-0.43,3.44-2.83,3.38 c-0.52-0.01-1.06,0.32-0.96,0.99c0.08,0.5,0.53,0.69,1,0.75c1.33,0.16,2.66,0.4,4,0.44c7.71,0.25,15.4-0.05,23.1-0.45 c0.73-0.04,1.47-0.24,2.18-0.47c0.7-0.22,1.16-0.84,1.13-1.53c-0.04-0.89-0.89-0.51-1.41-0.65c-2.22-0.63-4.44-0.11-6.66-0.05 c-5.52,0.15-11.05,0.16-16.57,0.25c-0.37,0.01-0.75,0.17-0.99-0.23c-0.76-1.31,0.9-4.41,2.39-4.42c2.54-0.02,5.08,0,7.6-0.46 c2.81-0.52,5.74-0.46,8.62-1.76c-0.84-0.71-1.58-0.82-2.41-0.77c-4.46,0.31-8.93,0.45-13.38,0.63c-7.63,0.29-15.28,0.22-22.91,0.04 c-8.14-0.18-16.27-0.95-24.42-0.85C70.88,466.85,69.47,466.8,68.37,467.88z M68.91,477.16c0-0.15,0-0.29,0-0.44 c-2.99,0-5.98-0.01-8.97,0.01c-0.71,0.01-1.79-0.2-1.83,0.75c-0.03,0.9,1.12,0.73,1.78,0.95c0.34,0.11,0.75,0.01,1.11,0.1 c3.39,0.78,6.84,0.32,10.26,0.61c6.25,0.53,12.53,0.27,18.8,0.26c0.58,0,1.19-0.17,1.72-0.4c0.63-0.28,1.72-0.36,1.51-1.31 c-0.17-0.77-1.14-0.52-1.78-0.52C83.98,477.16,76.44,477.16,68.91,477.16z M417.81,397.35c1.96,3.22,1.91,6.9,1.97,10.4 c0.12,7.68-1.06,15.24-3.33,22.6c-1.87-0.46-1.51-2.24-2.06-3.49c0.78-4.78,1.58-9.56,2.31-14.35c0.43-2.83,0.13-2.98-2.58-2.18 c-10.09,2.97-20.35,5.24-30.72,7.02c-10.51,1.81-21.05,3.23-31.68,4.11c-15.42,1.28-30.87,1.58-46.32,1.24 c-10.58-0.23-21.16-0.88-31.7-2.11c-16.01-1.87-31.88-4.42-47.47-8.57c-2.67-0.71-5.3-1.55-7.95-2.33c0-0.6-0.01-1.2-0.01-1.8 c3.48,0.82,6.96,1.65,10.45,2.47c1.15,0.27,2.45,1.2,3.43,0.53c1.17-0.81,0-2.21,0.02-3.36c0.13-7.61-0.02-15.21-0.9-22.78 c-0.68-5.92-1.41-11.82-2.79-17.62c0.55-1.33,1.1-2.65,1.65-3.98c2.77,12.2,4.02,24.59,4.8,37.59c0.56-1.2,0.88-1.93,1.24-2.64 c1.62-3.2,2.53-6.67,3.9-9.96c3.97-9.58,8.46-18.9,14.05-27.65c0.51-0.79,0.76-1.55,0.66-2.66c-0.5-5.52-1.98-10.8-3.51-16.07 c-1.37-4.72-3.08-9.31-5.62-13.56c0.42-0.88,0.62-1.89,1.43-2.55c1.68,4.05,3.83,7.88,5.16,12.11c1.9,6.04,3.63,12.1,4.27,18.79 c2.27-2.66,3.94-5.41,6.23-7.62c2.45-2.37,4.66-4.95,8.36-5.65c1.65-0.31,2.91-0.16,4.13,0.75c4.28,3.19,7.64,7.32,11.15,11.28 c0.78,0.88,1.43,1.89,2.65,2.65c0.85-2.3,1.58-4.54,2.48-6.72c3.98-9.6,9.44-18.22,16.72-25.7c1.83-1.87,3.77-3.59,5.7-5.33 c2.66-2.4,3.82-2.43,6.66-0.28c1.54,1.16,3.05,2.37,4.34,3.84c1.76,2,3.95,3.6,5.55,5.76c6.96,8.59,12.26,18.09,15.54,28.9 c1.5-1.3,2.52-2.71,3.37-4.27c2.58-2.6,5.16-5.21,7.74-7.82c4.1-4.17,6.85-4.62,12.08-0.1c0.34,0.29,0.62,0.65,0.96,0.94 c3.2,2.87,5.56,6.47,8.37,9.98c0.11-0.89,0.22-1.48,0.25-2.06c0.17-3.49,1.31-6.81,1.77-10.25c2.25-6.37,3.86-13,7.52-18.8 c0.55,0.55,1.19,1.04,1.23,1.91c-1.33,1.75-1.86,3.87-2.72,5.84c-2.02,4.61-3.59,9.38-4.44,14.37c-1.22,2.91-1.32,6.04-1.89,9.08 c-0.29,1.57,0.07,2.68,0.79,3.96c3.09,5.46,6.39,10.83,9.07,16.5c3.11,6.59,5.65,13.45,8.46,20.19c0.24,0.58,0.36,1.54,1.13,1.46 c0.89-0.1,0.92-1.05,0.94-1.8c0.05-2.31,0.07-4.62,0.11-6.94c0.63-0.96,0.24-2.04,0.32-3.05c0.64-8.16,2.3-16.15,3.84-24.16 c0.73,1.23,1.21,2.55,1.48,3.95c-2.11,10.09-3.35,20.27-3.52,30.59c-0.56,0.65-0.27,1.41-0.28,2.13c-0.06,2.97,0.48,5.95,0.01,8.92 c-0.35,2.18-0.08,2.47,2.15,1.89c0.43-0.11,0.85-0.21,1.28-0.32c1.96-0.48,3.92-0.94,5.87-1.43c5.43-1.35,5.43-1.35,4.58-6.94 C416.93,400.6,417.37,398.98,417.81,397.35z M349.73,357.19c-5.43,6.03-10.16,12.57-14.15,19.63c-3.52,5.73-6.38,11.77-8.87,18.01 c-2.99,7.49-5.47,15.11-7.03,23.04c-0.39,2.01,0.43,2.29,1.91,2.12c2.16-0.25,4.32-0.19,6.48-0.27c4.32-0.17,8.66,0.3,12.95-0.53 c1.41,0.13,2.8,0.04,4.21-0.08c5.36-0.47,10.73-0.87,16.1-1.3c1.17-0.13,2.34-0.25,3.51-0.4c4.46-0.61,8.92-1.23,13.38-1.84 c7.22-0.91,14.4-2.07,21.53-3.52c1.26-0.26,0.63-0.97,0.49-1.47c-0.87-3.13-1.6-6.3-2.69-9.38c-2.78-7.83-5.96-15.5-9.52-22.99 c-2.86-6.01-5.9-11.94-9.7-17.48c-2.99-4.36-5.56-9-9.48-12.64c-4.9-4.56-6.28-5.01-11.38,0.58 C354.19,350.87,352.22,354.27,349.73,357.19z M331.01,333.58c-2.89-4.2-6.45-7.8-10.06-11.36c-2.71-2.68-4.46-2.6-7.21,0.21 c-2.19,2.24-4.31,4.55-6.41,6.89c-2.99,3.34-5.86,6.84-8.08,10.7c-3.3,5.73-6.18,11.7-8.38,17.98c-0.46,1.32-0.42,2.21,0.36,3.22 c2.91,3.77,5.74,7.59,8.26,11.65c7.58,12.2,13.03,25.28,16.74,39.13c0.34,1.25,0.35,2.7,1.45,3.84c0.94-3.26,1.75-6.36,2.73-9.41 c2.64-8.24,5.62-16.34,9.78-23.97c1.71-3.12,3.3-6.31,4.94-9.46c2.87-3.85,5.7-7.73,8.62-11.54c0.9-1.17,1.04-2.17,0.42-3.55 c-1.22-2.7-2.09-5.55-3.32-8.24C338.23,343.92,335.14,338.42,331.01,333.58z M306.56,419.78c2.39,0,4.79-0.02,7.18,0.01 c1.29,0.01,2.02,0.01,1.68-1.84c-1.36-7.45-3.77-14.56-6.51-21.58c-3.36-8.63-7.45-16.88-12.55-24.63 c-4.32-6.56-9.34-12.57-14.41-18.55c-2.43-2.86-4.92-5.62-7.95-7.86c-1.14-0.84-2.27-1.09-3.67-0.3c-2.71,1.54-4.98,3.55-6.88,5.98 c-6.25,7.95-11.24,16.67-15.62,25.77c-5.18,10.77-9.91,21.71-12.85,33.35c-0.31,1.24-0.19,1.7,1.17,1.94 c5.43,0.97,10.88,1.81,16.3,2.78c9.19,1.64,18.47,2.44,27.72,3.44C288.93,419.23,297.74,419.66,306.56,419.78z M140.85,183.77 c0.67-0.33,1.37-0.6,2-0.99c6.58-4.1,13.5-7.47,21.03-9.37c2.78-0.7,5.49-1.84,8.43-1.91c6.32-0.14,12.61-0.84,18.97,0.38 c5.62,1.08,11.23,2.1,16.72,3.74c4.99,1.49,9.33,4.29,13.94,6.56c7.31,3.6,13.56,8.68,19.75,13.86c0.61,0.51,1.27,0.96,1.25,1.98 c-0.21,7.75,2.08,15.01,4.59,22.19c3.7,10.6,7.61,21.13,10.4,32.02c0.96,3.76,1.54,7.57,1.68,11.47c0.24,6.82-0.38,13.59-0.98,20.36 c-0.33,3.78-0.99,7.51-2.15,11.14c0.42,2.26,0.84,4.51,1.26,6.77c2.13-4.79,3.54-9.81,4.44-14.93c0.94-5.36,1.33-10.79,0.97-16.24 c-0.48-7.34-0.47-14.7-3.03-21.81c-3.6-10.02-7.37-20-10-30.35c-1.72-6.79-3.94-13.46-4.41-20.53c-0.22-3.32,0.6-4.17,3.85-3.46 c0.44,0.1,0.87,0.23,1.31,0.31c9.61,1.73,19.27,3.01,28.96,4.19c10.07,1.23,20.17,1.69,30.29,2.07c3.07,0.11,6.13-0.46,9.16-0.3 c4.82,0.25,9.61,0.15,14.42-0.07c8.79-0.41,17.55-1.16,26.27-2.31c9.68-1.28,19.35-2.57,28.91-4.62c0.01-0.7,0.01-1.4,0.02-2.1 c-4.78,0.58-9.57,1.17-14.35,1.75c-4.68,1.19-9.51,1.32-14.25,2.14c-3.78,0.33-7.56,0.66-11.34,0.99c-3.1,0.73-6.25,0.94-9.43,0.91 c-2.36,0.1-4.72,0.21-7.08,0.29c-6.23,0.22-12.47,0.58-18.7,0.57c-4.99-0.01-9.99-0.42-14.98-0.77c-4.99-0.34-9.97-0.74-14.94-1.26 c-6.96-0.73-13.92-1.56-20.87-2.42c-5.1-0.64-10.18-1.44-15.28-2.08c-1.41-0.18-1.71-0.74-1.39-2.08c1.11-4.62,2.24-9.24,3.8-13.74 c-1.16-0.08-1.58-1.21-2.43-1.73c-2.56,6.13-3.5,12.66-4.47,19.24c-1.26-1.07-2.36-2.08-3.52-2.99 c-7.59-5.97-15.79-10.93-24.71-14.65c-4.62-1.92-9.42-3.23-14.25-4.54c-8.42-2.29-16.99-3.34-25.59-2.72 c-13.22,0.95-25.15,5.96-36.12,13.29C139.46,182.78,140.1,183.33,140.85,183.77z M329.9,170.52c-4.25,0.07-8.49-0.02-12.73-0.11 c-4.38-0.08-8.77,0.08-13.17-0.13c-6.34-0.31-12.61-0.98-18.91-1.71c-6.67-0.77-13.25-1.83-19.78-3.3 c-2.32-0.52-4.63-1.09-6.94-1.64c0.49-0.58,0.99-1.16,1.48-1.73c1.93,0.89,4.05,0.87,6.08,1.3c7.78,1.65,15.63,2.73,23.54,3.59 c13.11,1.43,26.23,1.76,39.39,1.13c3.28,0.35,6.53,0.04,9.78-0.44c2.43-0.37,4.93-0.11,7.33-0.8c4.5-0.14,8.96-0.64,13.34-1.7 c1.24-0.2,2.49-0.37,3.73-0.59c3.5-0.62,7-1.23,10.49-1.9c0.51-0.1,1.52,0.09,1.14-1.11c-0.54-1.7-4.71-4.47-6.36-4.13 c-4.36,0.9-8.72,1.81-13.09,2.71c-3.89,0.6-7.78,1.19-11.67,1.79c-2.38,0.37-4.83,0.1-7.16,0.89c-3.01-0.3-5.96,0.56-8.96,0.46 c-2.24-0.02-4.48-0.08-6.72-0.05c-11.87,0.16-23.67-0.37-35.43-2.15c-6.78-1.03-13.41-2.65-20.12-3.93 c0.55-0.82,1.24-1.48,2.08-2.01c3.5,0.74,6.96,1.73,10.5,2.17c7.34,0.9,14.59,2.44,22.02,2.79c8.92,0.42,17.81,1.62,26.75,0.45 c2.31-0.02,4.63-0.04,6.94-0.06c0.6-0.01,1.4,0.02,1.6-0.57c0.51-1.5-0.7-2.64-1.13-3.94c-0.23-0.71-0.74-1.22-1.87-1.08 c-2.28,0.3-4.62,0.22-6.93,0.3c-0.89,0.02-1.78,0.06-2.68,0.05c-10.97-0.16-21.96,0.08-32.83-1.94c-5.7-1.06-11.42-2-17.01-3.6 c0.67-0.69,1.35-1.38,2.02-2.07c5.23,1.48,10.62,2.05,15.96,2.9c6.91,1.1,13.85,1.78,20.83,1.83c4.28,0.03,8.58-0.11,12.86-0.01 c2.52-0.15,5.05-0.29,7.57-0.44c1.91,0.32,3.75-0.11,5.6-0.45c3.47,0.02,6.87-0.46,10.23-1.34c1.71,0.45,3.1-0.78,4.75-0.89 c2.49-0.17,4.94-0.84,7.65-1.35c-1.88-2.61-4.88-3.88-6.24-6.64c0.24-0.4,0.49-0.8,0.73-1.2c3.21,1.82,5.86,4.43,8.33,7.02 c3.29,3.46,6.8,6.61,10.34,9.76c3.41,3.03,6.33,6.52,8.94,10.23c4.13,5.87,6.48,12.49,7.59,19.57c-0.72-0.52-1.44-1.05-2.16-1.57 c-0.35-1.21-0.7-2.42-1.06-3.63c-1.83-6.13-5.22-11.46-8.68-16.74c-0.43-0.66-1.07-1-1.92-0.81c-4.99,1.14-9.98,2.27-14.97,3.41 c-0.95,0.07-1.91,0.08-2.86,0.21c-3.64,0.52-7.27,1.07-10.9,1.62c-2.47-0.11-4.84,0.59-7.27,0.87 C336.58,169.76,333.24,170.15,329.9,170.52z M353.1,158.04c4.82-1.03,9.72-1.7,14.56-3.21c-1.08-1.65-2.49-2.67-3.66-3.91 c-1.02-1.08-2.11-1.32-3.6-0.92c-3.52,0.94-7.09,1.67-10.64,2.49c-3.49,0.69-7.1,0.74-10.63,1.73c0.64,1.32,1.17,2.38,1.68,3.45 c0.51,1.09,1.19,1.6,2.55,1.41C346.59,158.62,349.85,158.37,353.1,158.04z M40.05,432.44c-4.57-0.57-9.16-1.04-13.73-1.56 c-3.13,6.72-7.12,12.79-13.09,17.35c-1.34,1.02-2.65,2.15-4.41,2.44c1.19,0.84,2.42,1.59,3.9,1.79c0.66,0.08,1.32,0.16,1.99,0.22 c5.09,0.52,10.19,1.06,15.28,1.54c0.87,0.08,1.77,0.11,2.53-0.56c4.06-3.59,7.94-7.34,10.87-11.96c1.71-2.7,3.35-5.45,5.02-8.17 C45.69,432.65,42.84,432.78,40.05,432.44z M2.02,431.24c-3.73,6.42-2.44,14.58,5.22,18.6c3.49-1.98,6.13-4.95,8.66-7.93 c2.93-3.45,5.57-7.15,7.24-11.44c-5.61-1.03-11.21-2.16-16.93-2.35C4.31,428.49,2.91,429.69,2.02,431.24z M306.9,76.75 c7.04,0.01,14.09,0.02,21.14,0.03c-0.05-1.84-0.1-3.67-0.16-5.51c-6.89-0.58-13.79-0.25-20.69-0.26 C307.09,72.92,307,74.83,306.9,76.75z M212.45,490.74c-0.37,0.04-0.75,0.05-1.11,0.11c-9.54,1.79-19.11,2.85-28.84,2.08 c-6.98-0.55-13.95-1.15-20.8-2.68c0.14,0.61,0.29,1.22,0.43,1.84c0.12,0.13,0.24,0.26,0.37,0.38c0,0-0.03-0.02-0.03-0.02 c0.44,0.01,0.94-0.11,1.32,0.05c3.6,1.5,7.38,2.19,11.23,2.67c2.83,0.35,5.64,0.1,8.45,0.22c9.81,0.39,19.48-0.04,28.83-3.4 C212.34,491.57,212.4,491.15,212.45,490.74z M231.34,459.11c1.32-2.98,1.16-6.23,1.66-9.36c0.74-4.6,0.85-9.3,2.52-13.75 c1.02-2.72,1.69-5.55,2.2-8.41c0.65-3.64-0.78-6.48-4.07-8.1c-0.47-0.23-0.87-0.58-1.34-0.8c-4.31-2.08-8.76-3.69-13.6-3.96 c-0.03,0.44-0.06,0.88-0.08,1.32c0.76,0.29,1.5,0.77,2.28,0.85c3.59,0.37,6.98,1.48,10.31,2.77c3.72,1.44,4.86,3.59,4.3,7.5 c-0.51,3.58-2.3,6.74-3.02,10.27c-1.05,5.12-1.25,10.34-2.21,15.46c0.18,0.9,0.12,1.77-0.39,2.57c0.12,0.44,0.24,0.87,0.37,1.31 C230.63,457.55,230.98,458.33,231.34,459.11z M376.3,150.55c-0.69-0.77-1.52-1.41-2.27-2.12c-2.02-1.89-3.06-1.81-4.91,0.35 c1.94,2.7,4.46,4.86,6.8,7.18C378.45,153.82,378.52,153.03,376.3,150.55z M387.23,161.77c-0.77-1.03-1.85-1.68-2.71-2.57 c-1.63-1.7-3.03-1.47-4.51,0.05c1.55,3.19,4.31,5.19,7.09,7.17C388.76,164.92,388.47,163.41,387.23,161.77z M311.76,27.24 c3.8-0.27,7.6-0.62,11.4-0.04c0.05-0.84,0.1-1.68,0.15-2.52c-3.87,0-7.74,0.01-11.62,0.01C311.72,25.54,311.74,26.39,311.76,27.24z M427.16,226.18c1.17-2.78,2.33-5.56,1.53-8.69c-0.75-0.36-1.56-0.45-2.38-0.44c-0.2,2.84-0.16,5.73-1.87,8.23 C425.24,225.89,426.09,226.38,427.16,226.18z M398.89,200.98c2.96-1.49,6.06-2.62,9.29-3.37c-0.55-0.74-1.1-1.48-1.65-2.22 c-3.02,1.05-6.04,2.1-8.61,4.1C398.25,199.99,398.57,200.48,398.89,200.98z M375.11,226.73c-6.87,0.35-13.71-0.5-20.58-0.28 c-1.34,0.04-2.14-0.69-2.52-2.26c-1.19-4.84-0.13-9.61,0.09-14.41c0.04-0.79,0.4-1.18,1.27-1.18c4.38-0.02,8.76,0.03,13.14-0.08 c8.17-0.19,16.34-0.09,24.51-0.07c1.26,0,1.99-0.47,2.16-1.73c-1.76-0.22-3.51-0.44-5.27-0.65c-1.48-0.05-2.97-0.15-4.45-0.16 c-4.92-0.03-9.85,0.13-14.76,0.07c-5.22-0.07-10.45-0.04-15.67-0.2c-1.08-0.03-1.93,0.29-2.49,1.18c-0.87,1.39-1.67,2.82-1.92,4.49 c-0.65,4.39-0.39,8.77,0.39,13.1c0.64,3.51,1.95,4.41,5.59,4.42c9.04,0.04,18.09,0.1,27.13,0.16c0.25-0.74,0.51-1.48,0.76-2.22 C380.03,226.84,377.56,226.6,375.11,226.73z M140.36,432.6c-7.59,0.65-15.17,1.31-22.76,1.96c-2.27,9.64-7.84,17.34-14.65,24.51 c0.54,0.07,0.82,0.13,1.1,0.14c6.65,0.26,13.27-0.4,19.91-0.5c1.57-0.02,2.97-0.55,4.23-1.71c5.24-4.86,8.62-10.96,11.9-17.16 c0.55-1.03,0.54-2.37,1.66-3.09C141.44,435.31,141.05,433.9,140.36,432.6z M145.48,427.17c4.72-2.66,9.83-3.21,14.32-5.39 c-4.15-0.53-7.92,0.75-11.47,2.43c-2.69,1.28-5.07,2.72-7.72,0.18c-0.03-0.03-0.23,0.11-0.38,0.19c0.14,0.81,0.74,1.26,1.3,1.74 c4.73,4.09,10.54,5.72,16.41,7.16c5.59,1.37,11.29,2.07,17.05,2.43c8.41,0.52,16.81,0.99,25.22-0.05c2.27-0.13,4.45-1.04,6.77-0.72 c1.66-0.05,3.2-0.97,4.91-0.7c2.99-0.75,5.97-1.5,8.95-2.27c1.07-0.28,2.12-0.61,3.18-0.92c1.48-0.67,2.98-1.32,4.45-2.02 c3.56-1.69,5-2.96,5.59-5.05c-0.95,0.6-1.75,1.11-2.56,1.62c-0.74,0.47-1.5,0.72-2.24,0.01c-1.05-1.02-2.43-1.48-3.7-2.08 c-3.42-1.61-6.98-2.71-10.9-1.89c4.27,2.51,9.52,2.58,13.97,5.54c-2.69,1.03-4.91,2.22-7.41,2.65c-0.23,0.18-0.44,0.46-0.7,0.53 c-6.63,1.8-13.26,3.68-20.18,3.85c-6.21,0.15-12.42-0.12-18.63,0.08c-8,0.26-15.79-0.84-23.46-3c-1.35-0.38-2.85-0.35-3.88-1.54 C151.19,429.91,148.61,428.13,145.48,427.17z M142.64,441.21c-3.24,6.43-6.88,12.56-13.02,16.77c0.54,0.46,0.95,0.16,1.37,0.12 c4.45-0.37,8.9-0.72,13.35-1.08c0.04-0.47,0.08-0.94,0.12-1.41c0,0,0.03,0.01,0.03,0.01c-0.28-0.08-0.3-0.27-0.21-0.5 c-0.32-0.73-0.27-1.48-0.17-2.24C143.62,448.99,143.13,445.1,142.64,441.21z M152.15,416.91c-1.38-0.91-2.92-1.06-4.45-0.72 c-1.23,0.28-2.29,0.9-1.42,2.49C148.23,418.1,150.19,417.5,152.15,416.91z M409.95,208.54c-2.77,0.03-4.84,2.04-4.84,4.7 c0,2.42,2.03,4.4,4.59,4.48c2.64,0.09,4.84-2.21,4.86-5.05C414.57,210.35,412.51,208.51,409.95,208.54z M72.16,435.3 c-3.31,8.7-8.79,15.76-16.61,21.51c2.41,0.22,4.38,0.46,6.37,0.58c4.54,0.28,9.05,0.79,13.59,1.11c2,0.14,3.45-0.16,4.86-1.4 c4.78-4.19,9.23-8.69,12.04-14.48c1.08-2.23,3.06-4.08,3.11-6.78C87.72,436,79.94,435.47,72.16,435.3z M50.66,433.67 c-3.01,8.5-8.41,15.25-15.88,20.96c5.91,0.66,11.3,1.25,16.68,1.86c1.13,0.13,1.97-0.3,2.76-1.13c2.13-2.26,4.54-4.23,6.5-6.67 c3.41-4.25,6.62-8.61,8.69-13.7C63.16,434.54,56.91,434.11,50.66,433.67z M98.7,435.86c-3.36,9.01-8.48,16.79-16.32,22.67 c4.38,0.94,8.57,0.48,12.73,0.72c2.92,0.17,5.39-0.12,7.04-3.03c0.54-0.95,1.45-1.84,2.22-2.73c4.78-5.51,8.08-11.88,10.9-18.54 C109.75,435.3,104.2,435.21,98.7,435.86z M61.63,394.34c0.41,0.16,0.93,0.24,1.22-0.19c0.23-0.35-0.1-0.69-0.28-1.01 c-0.92-1.61-3.05-2.36-5.11-1.42c-1.41,0.64-2.58,0.61-3.93,0.05c-1.76-0.73-3.58-1.1-5.41-0.23c-0.54,0.26-1.06,0.64-1.02,1.34 c0.04,0.59,0.54,0.67,0.99,0.66c4.32-0.11,7.81,1.62,10.65,4.79c0.35,0.39,0.84,0.76,1.37,0.35c0.46-0.36,0.4-0.97,0.25-1.47 c-0.38-1.31-1.29-2.31-2.18-3.5C59.61,393.32,60.59,393.93,61.63,394.34z M91.34,387.32c0.2-0.79-0.37-1.33-0.96-1.6 c-2.46-1.12-5.01-1.93-7.75-1.44c-1.3,0.23-2.68,0.4-3.68,1.45c-0.35,0.36-0.93,0.68-0.6,1.28c0.24,0.44,0.82,0.36,1.22,0.27 c3.51-0.84,6.93-0.36,10.33,0.68C90.55,388.1,91.15,388.07,91.34,387.32z M123.01,395.4c-0.72-0.01-1.44,0.15-1.55,0.95 c-0.15,1.1,0.86,0.75,1.4,0.89c2,0.5,3.72,1.48,5.25,2.84c0.98,0.86,1.95,1.24,1.89-0.68c-0.03-1.04,0.56-0.94,1.12-0.75 c0.7,0.24,1.35,0.63,2,0.99c0.82,0.44,1.92,1.44,2.53,0.67c0.85-1.07-0.51-1.98-1.17-2.79c-0.35-0.43-1.04-0.57-1.51-0.92 c-2.81-2.1-6.11-0.31-8.9-1.19C123.61,395.4,123.31,395.4,123.01,395.4z M21.24,412.23c-0.45,0.12-0.78,0.44-0.94,0.87 c-0.19,0.5,0.08,0.89,0.45,1.14c1.65,1.11,3.31,2.21,5.01,3.26c0.47,0.29,1.15,0.61,1.21-0.05 C27.04,415.34,22.85,411.81,21.24,412.23z M136.2,428.67c0.28-0.57-0.13-1-0.43-1.41c-1.22-1.65-3.08-1.94-4.93-2.12 c-0.62-0.06-1.09,0.47-1.33,1.04c-0.22,0.51,0.11,0.87,0.54,1.06c1.56,0.68,3.13,1.33,4.57,1.94 C135.29,429,135.9,429.27,136.2,428.67z M273.32,363.23c-0.19-1.37-0.3-3.24-2.3-3.25c-1.76-0.01-2.31,1.55-2.37,2.95 c-0.06,1.39,0.79,2.36,2.65,2.37C272.28,365.14,273.53,364.73,273.32,363.23z M319.21,331.51c0.06-1.07-0.3-2.13-1.69-2.18 c-1.27-0.05-1.72,0.87-1.73,1.89c0,1.13,0.32,2.24,1.69,2.56C318.83,333.59,319.16,332.53,319.21,331.51z M361.53,362.99 c0.1,0.09,0.29,0.17,0.3,0.28c0.21,1.4,0.99,2.16,2.43,1.96c1.39-0.19,2.07-1.22,2.09-2.48c0.02-1.23-0.54-2.44-1.87-2.7 c-1.38-0.27-2.15,0.72-2.61,1.91c-0.13,0.34-0.2,0.7-0.3,1.06C361.57,363.02,361.53,362.99,361.53,362.99z M95.7,412.32 c-0.18,0.82,0.73,1.02,1.42,1c3.95-0.08,6.71,2.11,9.21,4.79c0.47,0.51,0.85,1.47,1.76,0.73c0.76-0.62,0.3-1.41-0.09-2.03 c-2.26-3.68-5.81-5.14-9.94-5.68C97.21,411.38,95.96,411.16,95.7,412.32z M109.2,401.39c-0.4,0.09-0.6,0.48-0.52,0.86 c0.05,0.24,0.3,0.61,0.5,0.63c1.63,0.23,3.09,1,4.65,1.44c0.41,0.12,0.97,0.14,1.22-0.28c0.36-0.6-0.2-0.91-0.58-1.25 c-1-0.91-1.99-1.83-3.52-1.6C110.37,401.25,109.77,401.26,109.2,401.39z M132.17,409.62c-0.37-0.51-1.25-0.46-1.86-0.05 c-0.45,0.3-0.48,0.73-0.05,1.11c1.45,1.25,2.29,3.08,4.11,4.34C135.22,412.39,133.27,411.16,132.17,409.62z M67.28,422.78 c-0.52,0.03-1.11-0.01-1.28,0.63c-0.15,0.58,0.24,1.06,0.7,1.27c1.82,0.82,3.16,2.15,4.23,3.8c0.21,0.33,0.74,0.71,1.06,0.66 c0.61-0.1,0.58-0.75,0.6-1.28C72.67,425.66,69.54,422.66,67.28,422.78z" fill="#935a49"/></g></svg>