<?xml version="1.0" encoding="UTF-8" standalone="no"?><svg xmlns="http://www.w3.org/2000/svg" xmlns:xlink="http://www.w3.org/1999/xlink" fill="#000000" height="500" preserveAspectRatio="xMidYMid meet" version="1" viewBox="0.0 0.0 500.0 500.0" width="500" zoomAndPan="magnify"><g id="change1_1"><path d="M475.63,296v-19.35v-7.82V250v-18.83v-7.82V204v-7.82v-24.14l21.64-22.33v0l2.73-2.82l-19.86-19.12 L500,108.65l-2.73-2.82v0l-21.64-22.33V59.36v-7.82V32.19v-7.82V0h-7.82v24.37h-27.17h-24.14L391.35,0l-19.12,19.86L353.11,0 l-25.15,24.37h-24.14h-27.17V0h-7.82v24.37v3.91v3.91v27.17v24.14L250,102.93l-18.83-19.43V59.36v-7.82V32.19v-7.82V0h-7.82v24.37 h-27.17h-24.14L146.89,0l-19.12,19.86L108.65,0L83.51,24.37H59.36H32.19V0h-7.82v24.37v3.91v3.91v27.17v24.14L0,108.65l19.86,19.12 L0,146.89l24.37,25.15v24.14v27.17v3.91v3.91V250v18.83v3.91v3.91v27.17v24.14L0,353.11l19.86,19.12L0,391.35l24.37,25.15v24.14 v27.17v3.91v3.91V500h7.82v-24.37h27.17h24.14L108.65,500l19.12-19.86L146.89,500l25.15-24.37h24.14h27.17V500h7.82v-24.37v-7.82 v-19.35v-7.82v-24.14L250,397.07l18.83,19.43v24.14v27.17v3.91v3.91V500h7.82v-24.37h27.17h24.14L353.11,500l19.12-19.86L391.35,500 l25.15-24.37h24.14h27.17V500h7.82v-24.37v-7.82v-19.35v-7.82v-24.14l21.64-22.33v0l2.73-2.82l-19.86-19.12L500,353.11l-2.73-2.82v0 l-21.64-22.33v-24.14V296z M448.46,32.19h19.35v19.35h-19.35V32.19z M448.46,59.36h19.35v27.31l21.11,21.78l-14.39,13.86 l-26.07-25.53V59.36z M423.46,127.77l25.6-10.46l-0.51-9.48l20.35,19.94l-20.35,19.94l0.51-9.48L423.46,127.77z M440.64,268.83 h-24.14L397.07,250l19.43-18.83h24.14h27.17V250v18.83H440.64z M467.81,276.65V296h-19.35v-19.35H467.81z M448.56,352.29 l20.35,19.94l-20.35,19.94l0.51-9.48l-25.6-10.46l25.6-10.46L448.56,352.29z M413.12,368.01l-0.28-0.12l0,0l-0.61-0.25l-0.04,0.02 l-11.77-7.09l3.65-14.11l28.06-11.46l8.17,9.28l0.66,12.35L413.12,368.01z M332.73,440.64h-28.91v-29.02l6.32,7.17l25.98-10.61 l-10.82,25.77L332.73,440.64z M346.36,404l0.15-0.06l0.34-0.14l13.69-3.4l7.39,12.55l-11.74,27.94l-12.34-0.78l-9.2-8.26L346.36,404 z M295.9,392.1l-20.32-19.9l20.32-19.9l-0.51,9.48l25.6,10.46l-25.6,10.46L295.9,392.1z M179,372.23l25.6-10.46l-0.51-9.48 l20.35,19.94l-20.35,19.94l0.51-9.48L179,372.23z M88.27,440.64H59.36v-29.02l6.32,7.17l25.98-10.61l-10.82,25.77L88.27,440.64z M101.9,404l0.15-0.06l0.34-0.14l13.69-3.4l7.39,12.55l-11.74,27.94l-12.34-0.78l-9.2-8.26L101.9,404z M51.44,392.1l-20.32-19.9 l20.32-19.9l-0.51,9.48l25.6,10.46l-25.6,10.46L51.44,392.1z M59.36,231.17h24.14L102.93,250l-19.43,18.83H59.36H32.19V250v-18.83 H59.36z M32.19,223.35V204h19.35v19.35H32.19z M51.44,147.64l-20.32-19.9l20.32-19.9l-0.51,9.48l25.6,10.46l-25.6,10.46 L51.44,147.64z M87.1,131.91l12.48,7.52l-3.65,14.11l-28.06,11.46l-8.17-9.28l-0.66-12.34L87.1,131.91z M167.27,59.36h28.91v29.02 l-6.32-7.17l-25.98,10.61l10.82-25.77L167.27,59.36z M153.64,96l-0.49,0.2l-13.69,3.4l-7.39-12.55l11.74-27.94l12.34,0.78l9.2,8.26 L153.64,96z M204.1,107.83l20.35,19.94l-20.35,19.94l0.51-9.48L179,127.77l25.6-10.46L204.1,107.83z M196.18,268.83h-24.14 L152.61,250l19.43-18.83h24.14h27.17V250v18.83H196.18z M223.35,276.65V296H204v-19.35H223.35z M139.46,344.05l-7.39-12.55 l11.74-27.94l12.34,0.78l9.2,8.26l-11.7,27.85l-0.49,0.2L139.46,344.05z M150.8,349.3l-2.92,11.29l-8.92,0.46l0.46-8.92L150.8,349.3 z M147.88,383.87l2.92,11.29l-11.39-2.83l-0.46-8.92L147.88,383.87z M138.71,376.76l-6.75-0.34l0.34,6.75l-4.53-5.02l-4.53,5.02 l0.34-6.75l-6.75,0.34l5.02-4.53l-5.02-4.53l6.75,0.34l-0.34-6.75l4.53,5.02l4.53-5.02l-0.34,6.75l6.75-0.34l-5.02,4.53 L138.71,376.76z M116.08,344.05l-13.69-3.4l-0.34-0.14l-0.15-0.06L90.2,312.6l9.2-8.26l12.34-0.78l11.74,27.94L116.08,344.05z M116.58,361.04l-8.92-0.46l-2.92-11.29l11.39,2.83L116.58,361.04z M116.08,155.95l7.39,12.55l-11.74,27.94l-12.34-0.78l-9.2-8.26 l11.7-27.85l0.15-0.06l0.34-0.14L116.08,155.95z M104.74,150.7l2.92-11.29l8.92-0.46l-0.46,8.92L104.74,150.7z M107.66,116.13 l-2.92-11.29l11.39,2.83l0.46,8.92L107.66,116.13z M116.83,123.24l6.75,0.34l-0.34-6.75l4.53,5.02l4.53-5.02l-0.34,6.75l6.75-0.34 l-5.02,4.53l5.02,4.53l-6.75-0.34l0.34,6.75l-4.53-5.02l-4.53,5.02l0.34-6.75l-6.75,0.34l5.02-4.53L116.83,123.24z M139.46,155.95 l13.69,3.4l0.34,0.14l0.15,0.06l11.7,27.85l-9.2,8.26l-12.34,0.78l-11.74-27.94L139.46,155.95z M138.96,138.96l8.92,0.46l2.92,11.29 l-11.39-2.83L138.96,138.96z M127.77,321.54l-10.98-26.14l-9.03,0.57l19.97-20.39l19.97,20.39l-8.96-0.57L127.77,321.54z M127.77,339.61l5.98,10.17l-5.99,6.63l-5.99-6.63L127.77,339.61z M113.98,250l13.79-14.32L141.56,250l-13.79,14.32L113.98,250z M138.75,204.6l8.96-0.57l-19.97,20.39l-19.97-20.39l9.03,0.57l10.98-26.14L138.75,204.6z M121.78,150.22l5.99-6.63l5.99,6.63 l-5.98,10.17L121.78,150.22z M133.19,230.03l25.5-26.03h37.49v19.35h-27.31l-21.78,21.11L133.19,230.03z M167.27,196.18l7.44-6.68 l-10.82-25.77l25.98,10.61l6.32-7.17v29.02H167.27z M80.83,189.5l7.44,6.68H59.36v-29.02l6.32,7.17l25.98-10.61L80.83,189.5z M96.79,204l25.53,26.07l-13.86,14.39l-21.78-21.11H59.36V204H96.79z M122.32,269.93L96.79,296H59.36v-19.35h27.31l21.78-21.11 L122.32,269.93z M88.27,303.82l-7.44,6.68l10.82,25.77l-25.98-10.61l-6.32,7.17v-29.02H88.27z M174.71,310.5l-7.44-6.68h28.91v29.02 l-6.32-7.17l-25.98,10.61L174.71,310.5z M158.69,296l-25.5-26.03l13.89-14.43l21.78,21.11h27.31V296H158.69z M204,223.35V204h19.35 v19.35H204z M204,196.18v-37.42l26.07-25.53l14.39,13.86l-21.11,21.78v27.31H204z M196.5,143.37l-0.66,12.35l-8.17,9.28 l-28.06-11.46l-3.63-14.03l12.96-7.39L196.5,143.37z M150.23,133.77l-6.64-6l6.63-5.98l10.23,6.16L150.23,133.77z M138.96,116.58 l0.46-8.92l11.39-2.83l-2.92,11.29L138.96,116.58z M133.76,105.32l-5.99,6.63l-5.99-6.63l5.99-10.17L133.76,105.32z M116.08,99.59 l-13.69-3.4l-0.34-0.14L101.9,96L90.2,68.14l9.2-8.26l12.34-0.78l11.74,27.94L116.08,99.59z M105.32,121.79l6.63,5.98l-6.63,5.98 l-9.93-5.98L105.32,121.79z M51.54,276.65V296H32.19v-19.35H51.54z M59.04,356.63l0.66-12.35l8.17-9.28l28.06,11.46l3.65,14.11 l-11.77,7.09l-0.04-0.02l-0.89,0.36L59.04,356.63z M105.32,366.25l6.63,5.98l-6.63,5.98l-9.93-5.98L105.32,366.25z M116.58,383.42 l-0.46,8.92l-11.39,2.83l2.92-11.29L116.58,383.42z M121.78,394.68l5.99-6.63l5.99,6.63l-5.98,10.17L121.78,394.68z M139.46,400.41 l13.69,3.4l0.34,0.14l0.15,0.06l11.7,27.85l-9.2,8.26l-12.34,0.78l-11.74-27.94L139.46,400.41z M150.23,378.23l-6.64-6l6.63-5.98 l10.23,6.16L150.23,378.23z M155.96,360.58l3.65-14.11l28.06-11.46l8.17,9.28l0.66,12.35l-27.84,11.37l-0.28-0.12l0,0l-0.61-0.25 l-0.04,0.02L155.96,360.58z M204,341.25v-37.42h19.35v27.31l21.11,21.78l-14.39,13.86L204,341.25z M231.17,327.97v-24.14V296v-19.35 v-7.82V250v-18.83v-7.82V204v-7.82v-24.14L250,152.61l18.83,19.43v24.14v27.17v3.91v3.91V250v18.83v3.91v3.91v27.17v24.14 L250,347.39L231.17,327.97z M321,127.77l-25.6,10.46l0.5,9.41l-20.32-19.9l20.32-19.9l-0.51,9.48L321,127.77z M411.73,59.36h28.91 v29.02l-6.32-7.17l-25.98,10.61l10.82-25.77L411.73,59.36z M398.1,96l-0.49,0.2l-13.69,3.4l-7.39-12.55l11.74-27.94l12.34,0.78 l9.2,8.26L398.1,96z M383.92,344.05l-7.39-12.55l11.74-27.94l12.34,0.78l9.2,8.26l-11.7,27.85l-0.49,0.2L383.92,344.05z M395.26,349.3l-2.92,11.29l-8.92,0.46l0.46-8.92L395.26,349.3z M392.34,383.87l2.92,11.29l-11.39-2.83l-0.46-8.92L392.34,383.87z M383.17,376.76l-6.75-0.34l0.34,6.75l-4.53-5.02l-4.53,5.02l0.34-6.75l-6.75,0.34l5.02-4.53l-5.02-4.53l6.75,0.34l-0.34-6.75 l4.53,5.02l4.53-5.02l-0.34,6.75l6.75-0.34l-5.02,4.53L383.17,376.76z M360.54,344.05l-13.69-3.4l-0.34-0.14l-0.15-0.06l-11.7-27.85 l9.2-8.26l12.34-0.78l11.74,27.94L360.54,344.05z M361.04,361.04l-8.92-0.46l-2.92-11.29l11.39,2.83L361.04,361.04z M276.65,268.83 V250v-18.83h27.17h24.14L347.39,250l-19.43,18.83h-24.14H276.65z M296,276.65V296h-19.35v-19.35H296z M276.65,223.35V204H296v19.35 H276.65z M360.54,155.95l7.39,12.55l-11.74,27.94l-12.34-0.78l-9.2-8.26l11.7-27.85l0.15-0.06l0.34-0.14L360.54,155.95z M349.2,150.7l2.92-11.29l8.92-0.46l-0.46,8.92L349.2,150.7z M352.12,116.13l-2.92-11.29l11.39,2.83l0.46,8.92L352.12,116.13z M361.29,123.24l6.75,0.34l-0.34-6.75l4.53,5.02l4.53-5.02l-0.34,6.75l6.75-0.34l-5.02,4.53l5.02,4.53l-6.75-0.34l0.34,6.75 l-4.53-5.02l-4.53,5.02l0.34-6.75l-6.75,0.34l5.02-4.53L361.29,123.24z M383.92,155.95l13.69,3.4l0.34,0.14l0.15,0.06l11.7,27.85 l-9.2,8.26l-12.34,0.78l-11.74-27.94L383.92,155.95z M383.42,138.96l8.92,0.46l2.92,11.29l-11.39-2.83L383.42,138.96z M372.23,321.54l-10.98-26.14l-9.03,0.57l19.97-20.39l19.97,20.39l-8.96-0.57L372.23,321.54z M372.23,339.61l5.99,10.17l-5.99,6.63 l-5.99-6.63L372.23,339.61z M341.25,296h-37.42v-19.35h27.31l21.78-21.11l13.86,14.39L341.25,296z M358.44,250l13.79-14.32 L386.02,250l-13.79,14.32L358.44,250z M372.2,224.42l-19.97-20.39l9.03,0.57l10.98-26.14l10.98,26.14l8.96-0.57L372.2,224.42z M366.24,150.22l5.99-6.63l5.99,6.63l-5.99,10.17L366.24,150.22z M325.29,189.5l7.44,6.68h-28.91v-29.02l6.32,7.17l25.98-10.61 L325.29,189.5z M341.25,204l25.53,26.07l-13.86,14.39l-21.78-21.11h-27.31V204H341.25z M303.82,303.82h28.91l-7.44,6.68l10.82,25.77 l-25.98-10.61l-6.32,7.17V303.82z M419.17,310.5l-7.44-6.68h28.91v29.02l-6.32-7.17l-25.98,10.61L419.17,310.5z M403.15,296 l-25.5-26.03l13.89-14.43l21.78,21.11h27.31V296H403.15z M377.65,230.03l25.5-26.03h37.49v19.35h-27.31l-21.78,21.11L377.65,230.03z M411.73,196.18l7.44-6.68l-10.82-25.77l25.98,10.61l6.32-7.17v29.02H411.73z M440.3,155.71l-8.17,9.28l-28.06-11.46l-3.63-14.03 l12.96-7.39l27.56,11.25L440.3,155.71z M394.69,133.77l-6.64-6l6.63-5.98l10.23,6.16L394.69,133.77z M383.42,116.58l0.46-8.92 l11.39-2.83l-2.92,11.29L383.42,116.58z M378.22,105.32l-5.99,6.63l-5.99-6.63l5.99-10.17L378.22,105.32z M360.54,99.59l-13.69-3.4 l-0.34-0.14L346.36,96l-11.7-27.85l9.2-8.26l12.34-0.78l11.74,27.94L360.54,99.59z M349.78,121.79l6.63,5.98l-6.63,5.98l-9.93-5.98 L349.78,121.79z M344.04,139.42l-3.65,14.11l-28.06,11.46l-8.17-9.28l-0.66-12.34l28.06-11.46L344.04,139.42z M296,158.69v37.49 h-19.35v-27.31l-21.11-21.78l14.43-13.89L296,158.69z M276.65,331.13v-27.31H296v37.42l-26.07,25.53l-14.39-13.86L276.65,331.13z M303.5,356.63l0.66-12.35l8.17-9.28l28.06,11.46l3.65,14.11l-11.77,7.09l-0.04-0.02l-0.89,0.36L303.5,356.63z M349.78,366.25 l6.63,5.98l-6.63,5.98l-9.93-5.98L349.78,366.25z M361.04,383.42l-0.46,8.92l-11.39,2.83l2.92-11.29L361.04,383.42z M366.24,394.68 l5.99-6.63l5.99,6.63l-5.99,10.17L366.24,394.68z M383.92,400.41l13.69,3.4l0.34,0.14l0.15,0.06l11.7,27.85l-9.2,8.26l-12.34,0.78 l-11.74-27.94L383.92,400.41z M394.69,378.23l-6.64-6l6.63-5.98l10.23,6.16L394.69,378.23z M448.46,223.35V204h19.35v19.35H448.46z M440.96,112.17l-27.84,11.37l-0.28-0.12l0,0l-0.61-0.25l-0.04,0.02l-11.77-7.09l3.65-14.11l28.06-11.46l8.17,9.28L440.96,112.17z M391.54,11.08l21.78,21.11h27.31v19.35h-37.49l-25.5-26.03L391.54,11.08z M392.17,51.51l-8.96-0.57l-10.98,26.14l-10.98-26.14 l-9.03,0.57l19.97-20.39L392.17,51.51z M303.82,32.19h27.31l21.78-21.11l13.86,14.39l-25.53,26.07h-37.42V32.19z M303.82,59.36 h28.91l-7.44,6.68l10.82,25.77l-25.98-10.61l-6.32,7.17V59.36z M304.16,99.83l8.17-9.28l28.06,11.46l3.65,14.11l-11.77,7.09 l-0.04-0.02l-0.89,0.36l-27.84-11.37L304.16,99.83z M276.65,32.19H296v19.35h-19.35V32.19z M276.65,86.67V59.36H296v37.42 l-26.07,25.53l-14.39-13.86L276.65,86.67z M264.32,127.77L250,141.56l-14.32-13.79L250,113.98L264.32,127.77z M204,32.19h19.35 v19.35H204V32.19z M204,59.36h19.35v27.31l21.11,21.78l-14.39,13.86L204,96.79V59.36z M196.5,112.17l-27.84,11.37l-0.28-0.12l0,0 l-0.61-0.25l-0.04,0.02l-11.77-7.09l3.65-14.11l28.06-11.46l8.17,9.28L196.5,112.17z M147.08,11.08l21.78,21.11h27.31v19.35h-37.49 l-25.5-26.03L147.08,11.08z M147.71,51.51l-8.96-0.57l-10.98,26.14l-10.98-26.14l-9.03,0.57l19.97-20.39L147.71,51.51z M59.36,32.19 h27.31l21.78-21.11l13.86,14.39L96.79,51.54H59.36V32.19z M59.36,59.36h28.91l-7.44,6.68l10.82,25.77L65.68,81.21l-6.32,7.17V59.36z M59.7,99.83l8.17-9.28l28.06,11.46l3.65,14.11l-11.77,7.09l-0.04-0.02l-0.89,0.36l-27.84-11.37L59.7,99.83z M32.19,32.19h19.35 v19.35H32.19V32.19z M11.08,108.46l21.11-21.78V59.36h19.35v37.42l-26.07,25.53L11.08,108.46z M11.08,147.08l14.43-13.89l26.03,25.5 v37.49H32.19v-27.31L11.08,147.08z M11.08,352.92l21.11-21.78v-27.31h19.35v37.42l-26.07,25.53L11.08,352.92z M51.54,467.81H32.19 v-19.35h19.35V467.81z M51.54,440.64H32.19v-27.31l-21.11-21.78l14.43-13.89l26.03,25.5V440.64z M59.04,387.83l28.06-11.46 l12.48,7.52l-3.65,14.11l-28.06,11.46l-8.17-9.28L59.04,387.83z M108.46,488.92l-21.78-21.11H59.36v-19.35h37.42l25.53,26.07 L108.46,488.92z M127.74,468.88l-19.97-20.39l9.03,0.57l10.98-26.14l10.98,26.14l8.96-0.57L127.74,468.88z M196.18,467.81h-27.31 l-21.78,21.11l-13.89-14.43l25.5-26.03h37.49V467.81z M196.18,440.64h-28.91l7.44-6.68l-10.82-25.77l25.98,10.61l6.32-7.17V440.64z M195.84,400.17l-8.17,9.28l-28.06-11.46l-3.63-14.03l12.96-7.39l27.56,11.25L195.84,400.17z M223.35,467.81H204v-19.35h19.35 V467.81z M223.35,413.33v27.31H204v-37.42l26.07-25.53l14.39,13.86L223.35,413.33z M235.68,372.23L250,358.44l14.32,13.79 L250,386.02L235.68,372.23z M296,467.81h-19.35v-19.35H296V467.81z M296,440.64h-19.35v-27.31l-21.11-21.78l14.43-13.89l26.03,25.5 V440.64z M303.5,387.83l28.06-11.46l12.48,7.52l-3.65,14.11l-28.06,11.46l-8.17-9.28L303.5,387.83z M352.92,488.92l-21.78-21.11 h-27.31v-19.35h37.42l25.53,26.07L352.92,488.92z M372.2,468.88l-19.97-20.39l9.03,0.57l10.98-26.14l10.98,26.14l8.96-0.57 L372.2,468.88z M440.64,467.81h-27.31l-21.78,21.11l-13.89-14.43l25.5-26.03h37.49V467.81z M440.64,440.64h-28.91l7.44-6.68 l-10.82-25.77l25.98,10.61l6.32-7.17V440.64z M440.3,400.17l-8.17,9.28l-28.06-11.46l-3.63-14.03l12.96-7.39l27.56,11.25 L440.3,400.17z M467.81,467.81h-19.35v-19.35h19.35V467.81z M488.92,391.54l-21.11,21.78v27.31h-19.35v-37.42l26.07-25.53 L488.92,391.54z M488.92,352.92l-14.39,13.86l-26.07-25.53v-37.42h19.35v27.31L488.92,352.92z M467.81,168.87v27.31h-19.35v-37.42 l26.07-25.53l14.39,13.86L467.81,168.87z" fill="#241d29"/></g></svg>