<?xml version="1.0" encoding="UTF-8"?><svg xmlns="http://www.w3.org/2000/svg" xmlns:xlink="http://www.w3.org/1999/xlink" height="60.8" preserveAspectRatio="xMidYMid meet" version="1.0" viewBox="0.0 -0.1 488.9 60.8" width="488.9" zoomAndPan="magnify"><g id="change1_1"><path d="M442.53,2.54c-0.15,0-0.3,0.06-0.4,0.15l-6.23,5.63l-9.05-8.17c-0.22-0.2-0.57-0.2-0.79,0l-9.05,8.17 l-6.23-5.63c-0.1-0.09-0.25-0.15-0.39-0.15h-45.34c-0.03,0-0.07,0.01-0.11,0.01h-44.68c-0.15,0-0.29,0.06-0.39,0.15l-6.23,5.63 l-9.05-8.17c-0.22-0.2-0.58-0.2-0.8,0l-9.04,8.17l-6.23-5.63c-0.1-0.09-0.25-0.15-0.4-0.15h-42.21c-0.04-0.01-0.08-0.01-0.12-0.01 h-46.9c-0.15,0-0.29,0.06-0.4,0.15l-6.23,5.63l-9.05-8.17c-0.22-0.2-0.57-0.2-0.79,0l-9.05,8.17l-6.22-5.63 c-0.11-0.09-0.25-0.15-0.4-0.15h-45.33c-0.04,0-0.08,0.01-0.11,0.01H76.63c-0.15,0-0.3,0.06-0.4,0.15L70,8.33l-9.05-8.17 c-0.22-0.2-0.57-0.2-0.8,0l-9.04,8.17L44.88,2.7c-0.1-0.09-0.25-0.15-0.39-0.15H0v1.02v5v1.02h41.49l4.11,3.71l-7.03,6.35h-9.22 c-0.15,0-0.29,0.06-0.4,0.15l-6.17,5.58l-6.17-5.58c-0.11-0.09-0.25-0.15-0.4-0.15H0v1.02v5v1.02h13.22l4.05,3.66l-4.23,3.82H0v7.04 h16.03c0.15,0,0.3-0.05,0.4-0.15l6.35-5.73l6.35,5.73c0.11,0.1,0.25,0.15,0.4,0.15h9.21l6.86,6.19l-4.32,3.91 c-0.03,0.02-0.05,0.04-0.07,0.06H0v1.02v5v1.02h44.2c0.15,0,0.3-0.06,0.4-0.15l6.51-5.88l9.04,8.17c0.11,0.09,0.25,0.15,0.4,0.15 s0.3-0.06,0.4-0.15L70,52.38l6.51,5.88c0.11,0.09,0.25,0.15,0.4,0.15h46.62c0.04,0,0.08-0.01,0.11-0.01h42.83 c0.14,0,0.29-0.06,0.39-0.15l6.51-5.88l9.05,8.17c0.1,0.09,0.25,0.15,0.4,0.15s0.29-0.06,0.39-0.15l9.05-8.17l6.51,5.88 c0.11,0.09,0.25,0.15,0.4,0.15h43.79c0.03,0.01,0.07,0.01,0.11,0.01h44.77c0.15,0,0.29-0.06,0.4-0.15l6.51-5.88l9.04,8.17 c0.11,0.09,0.25,0.15,0.4,0.15s0.29-0.06,0.4-0.15l9.05-8.17l6.51,5.88c0.1,0.09,0.25,0.15,0.4,0.15h46.62 c0.04,0,0.08-0.01,0.11-0.01h42.82c0.15,0,0.3-0.06,0.4-0.15l6.51-5.88l9.04,8.17c0.11,0.09,0.25,0.15,0.4,0.15s0.3-0.06,0.4-0.15 l9.05-8.17l6.51,5.88c0.11,0.09,0.25,0.15,0.4,0.15h46.06v-1.02v-5v-1.02h-43.08c-0.01-0.02-0.04-0.04-0.06-0.06l-4.32-3.91 l6.86-6.19h9.21c0.15,0,0.29-0.05,0.4-0.15l6.35-5.73l6.35,5.73c0.1,0.1,0.24,0.15,0.39,0.15h17.9v-1.02v-5v-1.02h-14.9l-4.23-3.82 l4.05-3.66h15.08v-1.02v-5v-1.02H470.8c-0.15,0-0.29,0.06-0.4,0.15l-6.17,5.58l-6.18-5.58c-0.1-0.09-0.25-0.15-0.4-0.15h-9.21 l-7.03-6.35l4.11-3.71h43.35V8.56v-5V2.54H442.53z M445.05,26.53c0.11,0.1,0.25,0.15,0.4,0.15h9.21l4.06,3.66l-4.23,3.82h-9.22 c-0.15,0-0.29,0.06-0.4,0.15l-8.97,8.11l-3.93-3.55l9.04-8.16c0.22-0.2,0.22-0.53,0-0.72l-4.62-4.18c-0.02-0.02-0.04-0.03-0.06-0.05 c-0.02-0.01-0.03-0.03-0.04-0.04l-4.33-3.9l3.94-3.55L445.05,26.53z M422.52,47.39l3.93-3.55l3.93,3.55l-3.93,3.55L422.52,47.39z M407.18,51.3c-0.03,0.02-0.05,0.04-0.06,0.06h-41.78c-0.04,0-0.08,0-0.11,0.01h-41.7l-0.06-0.06l-4.32-3.91l6.86-6.19h9.21 c0.15,0,0.29-0.05,0.4-0.15l6.34-5.73l6.35,5.73c0.11,0.1,0.25,0.15,0.4,0.15h18.46c0.04,0,0.07,0,0.11-0.01h14.65 c0.15,0,0.3-0.05,0.4-0.15l6.35-5.73l6.35,5.73c0.11,0.1,0.25,0.15,0.4,0.15h9.21l6.86,6.19L407.18,51.3z M304.19,50.95l-3.93-3.55 l3.93-3.55l3.93,3.55L304.19,50.95z M284.91,51.31l-0.06,0.06h-38.94c-0.04-0.01-0.08-0.01-0.12-0.01h-43.63 c-0.02-0.02-0.04-0.04-0.07-0.06l-4.32-3.91l6.86-6.19h9.21c0.15,0,0.29-0.05,0.4-0.15l6.35-5.73l6.35,5.73 c0.1,0.1,0.25,0.15,0.4,0.15h15.76c0.03,0.01,0.07,0.01,0.11,0.01h16.46c0.15,0,0.29-0.05,0.4-0.15l6.35-5.73l6.35,5.73 c0.1,0.1,0.25,0.15,0.4,0.15h9.21l6.85,6.19L284.91,51.31z M178.89,47.39l3.93-3.55l3.93,3.55l-3.93,3.55L178.89,47.39z M163.54,51.3c-0.02,0.02-0.05,0.04-0.06,0.06H121.7c-0.04,0-0.08,0-0.11,0.01h-41.7c-0.02-0.02-0.04-0.04-0.06-0.06l-4.32-3.91 l6.86-6.19h9.21c0.15,0,0.29-0.05,0.4-0.15l6.35-5.73l6.34,5.73c0.11,0.1,0.25,0.15,0.4,0.15h18.46c0.04,0,0.08,0,0.11-0.01h14.66 c0.15,0,0.29-0.05,0.4-0.15l6.34-5.73l6.35,5.73c0.11,0.1,0.25,0.15,0.4,0.15H161l6.86,6.19L163.54,51.3z M60.55,50.95l-3.93-3.55 l3.93-3.55l3.93,3.55L60.55,50.95z M28.29,30.35l4.06-3.66h9.21c0.15,0,0.29-0.05,0.4-0.15l9.15-8.26l3.93,3.55l-4.32,3.9 l-0.04,0.04c-0.02,0.02-0.04,0.03-0.06,0.05L46,30c-0.22,0.19-0.22,0.52,0,0.72l9.04,8.16l-3.93,3.55l-2.31-2.09l-6.67-6.02 c-0.1-0.09-0.25-0.15-0.4-0.15h-9.21L28.29,30.35z M64.49,13.3l-3.94,3.55l-3.93-3.55l3.93-3.55L64.49,13.3z M60.55,26.8l3.93,3.55 l-3.93,3.55l-3.93-3.55L60.55,26.8z M66.07,38.88l9.04-8.16c0.22-0.2,0.22-0.53,0-0.72l-4.62-4.18c-0.02-0.02-0.04-0.03-0.06-0.05 c-0.02-0.01-0.03-0.03-0.05-0.04l-4.32-3.9L70,18.28l9.15,8.26c0.11,0.1,0.25,0.15,0.4,0.15h9.21l4.06,3.66l-4.23,3.82h-9.22 c-0.15,0-0.29,0.06-0.4,0.15L70,42.43L66.07,38.88z M79.62,9.59h43.91c0.04,0,0.08,0,0.11-0.01h40.11l4.11,3.71l-7.03,6.35h-9.22 c-0.14,0-0.29,0.06-0.39,0.15l-6.18,5.58l-6.17-5.58c-0.11-0.09-0.25-0.15-0.4-0.15H121.7c-0.04,0-0.08,0.01-0.11,0.01H104.9 c-0.15,0-0.29,0.06-0.4,0.15l-6.17,5.58l-6.18-5.58c-0.1-0.09-0.25-0.15-0.39-0.15h-9.21l-2.71-2.44c-0.01-0.01-0.02-0.02-0.04-0.03 l-4.29-3.88L79.62,9.59z M201.88,9.58h40.8c0.03,0.01,0.07,0.01,0.11,0.01h42.34l4.11,3.71l-7.04,6.35h-9.21 c-0.15,0-0.29,0.06-0.4,0.15l-6.17,5.58l-6.18-5.58c-0.1-0.09-0.25-0.15-0.4-0.15h-13.93c-0.04-0.01-0.08-0.01-0.12-0.01h-18.63 c-0.15,0-0.29,0.06-0.39,0.15l-6.18,5.58l-6.18-5.58c-0.1-0.09-0.24-0.15-0.39-0.15h-9.21l-7.04-6.35L201.88,9.58z M308.13,13.3 l-3.94,3.55l-3.93-3.55l3.93-3.55L308.13,13.3z M304.19,26.8l3.93,3.55l-3.93,3.55l-3.93-3.55L304.19,26.8z M298.68,21.83l-4.32,3.9 c-0.01,0.01-0.03,0.03-0.04,0.04c-0.02,0.02-0.05,0.03-0.06,0.05L289.64,30c-0.22,0.19-0.22,0.52,0,0.72l9.04,8.16l-3.93,3.55 l-2.31-2.09l-6.67-6.02c-0.11-0.09-0.25-0.15-0.4-0.15h-9.21l-4.23-3.82l4.06-3.66h9.21c0.15,0,0.29-0.05,0.39-0.15l9.16-8.26 L298.68,21.83z M230.16,26.68h12.8c0.03,0.01,0.07,0.01,0.11,0.01h13.78l4.06,3.66l-4.23,3.82h-10.77 c-0.04-0.01-0.08-0.01-0.12-0.01h-15.46l-4.23-3.82L230.16,26.68z M201.42,26.53c0.1,0.1,0.24,0.15,0.39,0.15h9.21l4.06,3.66 l-4.23,3.82h-9.21c-0.15,0-0.3,0.06-0.4,0.15l-8.98,8.11l-3.93-3.55l9.04-8.16c0.22-0.2,0.22-0.53,0-0.72l-4.62-4.18 c-0.02-0.02-0.04-0.03-0.06-0.05c-0.01-0.01-0.03-0.03-0.04-0.04l-4.32-3.9l3.93-3.55L201.42,26.53z M182.82,26.79l3.93,3.55 l-3.93,3.55l-3.93-3.55L182.82,26.79z M178.88,13.29l3.94-3.55l3.93,3.55l-3.93,3.55L178.88,13.29z M177.31,21.82l-4.32,3.9 c-0.02,0.01-0.03,0.03-0.05,0.04c-0.02,0.02-0.04,0.03-0.06,0.05l-4.62,4.18c-0.22,0.19-0.22,0.52,0,0.72l9.04,8.16l-3.93,3.55 l-8.97-8.11c-0.11-0.09-0.25-0.15-0.4-0.15h-9.22l-4.23-3.82l4.06-3.66h9.21c0.15,0,0.29-0.05,0.4-0.15l9.15-8.26L177.31,21.82z M139.53,30.34l-4.23,3.82h-13.46c-0.04,0-0.08,0.01-0.11,0.01h-13.66l-1.18-1.06l-3.05-2.76l4.05-3.66h15.64 c0.04,0,0.08,0,0.11-0.01h11.84L139.53,30.34z M309.7,38.88l9.05-8.16c0.22-0.2,0.22-0.53,0-0.72l-4.62-4.18 c-0.02-0.02-0.04-0.03-0.06-0.05c-0.02-0.01-0.03-0.03-0.05-0.04l-4.32-3.9l3.94-3.55l9.15,8.26c0.1,0.1,0.25,0.15,0.4,0.15h9.21 l4.05,3.66l-4.23,3.82h-9.21c-0.15,0-0.29,0.06-0.4,0.15l-8.98,8.11L309.7,38.88z M323.26,9.59h43.91c0.04,0,0.08,0,0.11-0.01h40.11 l4.11,3.71l-7.03,6.35h-9.22c-0.15,0-0.29,0.06-0.4,0.15l-6.17,5.58l-6.17-5.58c-0.11-0.09-0.25-0.15-0.4-0.15h-16.77 c-0.04,0-0.08,0.01-0.12,0.01h-16.68c-0.15,0-0.29,0.06-0.4,0.15l-6.17,5.58l-6.18-5.58c-0.1-0.09-0.25-0.15-0.4-0.15h-9.21 l-2.7-2.44c-0.01-0.01-0.03-0.02-0.04-0.03l-4.3-3.88L323.26,9.59z M430.39,13.29l-3.94,3.55l-3.93-3.55l3.93-3.55L430.39,13.29z M426.45,33.89l-3.93-3.55l3.93-3.55l3.93,3.55L426.45,33.89z M420.94,21.82l-4.32,3.9l-0.04,0.04c-0.02,0.02-0.04,0.03-0.06,0.05 l-4.62,4.18c-0.22,0.19-0.22,0.52,0,0.72l9.04,8.16l-3.93,3.55l-8.98-8.11c-0.1-0.09-0.25-0.15-0.4-0.15h-9.21l-4.23-3.82l4.06-3.66 h9.21c0.15,0,0.29-0.05,0.4-0.15l9.15-8.26L420.94,21.82z M383.17,30.34l-4.23,3.82h-13.47c-0.03,0-0.07,0.01-0.11,0.01h-13.65 l-1.18-1.06l-3.05-2.76l4.05-3.66h15.64c0.04,0,0.08,0,0.11-0.01h11.84L383.17,30.34z M462.48,25.22c0,0.01,0.01,0.02,0.01,0.02 l-5.07-4.58L462.48,25.22z" fill="#055592"/></g><g id="change2_1"><path d="M473.73,35.18h15.14v5h-17.66l-15.92-14.37c-0.1-0.09-0.25-0.15-0.4-0.15h-9.2l-8.99-8.11l3.92-3.53 l7.19,6.49c0.11,0.1,0.25,0.15,0.4,0.15h9.21l5.07,4.58c0.01,0.01,0.01,0.02,0.02,0.03l8.18,7.39c0.01,0.01,0.03,0.01,0.04,0.02 l2.61,2.35C473.44,35.13,473.58,35.18,473.73,35.18z M69.86,26.69c-0.22-0.01-0.41-0.13-0.49-0.31c-0.02-0.06-0.04-0.11-0.04-0.16 l-9.15-8.27c-0.01-0.01-0.03-0.02-0.04-0.03l-4.31-3.89l-3.92,3.53l13.76,12.43c0.22,0.19,0.23,0.52,0.01,0.72l-4.32,3.9l3.92,3.54 l8.63-7.79L69.86,26.69z M444.58,52.06c-0.06-0.12-0.06-0.25-0.01-0.37l-3.95-3.57l-3.92,3.54l6.34,5.72h45.83v-5H445.1 C444.87,52.38,444.66,52.25,444.58,52.06z M55.83,39.6l-9.03,8.16c-0.02,0.02-0.03,0.03-0.04,0.04l-4.32,3.9 c0.05,0.12,0.05,0.25-0.01,0.37c-0.09,0.19-0.29,0.32-0.52,0.32H0v5h43.97l15.78-14.25L55.83,39.6z M13.85,25.82l4.62,4.17 l4.71,4.26l6.58,5.94h9.19c0.15,0,0.32,0.05,0.42,0.15l7.02,6.34l3.92-3.54l-8.81-7.95h-9.34c-0.23,0-0.44-0.12-0.53-0.31 c-0.01-0.04-0.02-0.07-0.03-0.1l-8.96-8.09c-0.21-0.02-0.39-0.14-0.48-0.31c-0.02-0.05-0.03-0.1-0.04-0.15l-6.15-5.56H0v5h13.45 C13.6,25.67,13.74,25.73,13.85,25.82z M422.14,38.51l9.03,8.16l3.92-3.54l-8.82-7.96c-0.18-0.04-0.34-0.15-0.41-0.3 c-0.02-0.04-0.03-0.07-0.03-0.11l-4.49-4.05c-0.11-0.1-0.17-0.23-0.17-0.36c0-0.14,0.05-0.27,0.16-0.37l4.32-3.9l-3.92-3.53 l-4.04,3.65c-0.01,0.06-0.02,0.11-0.05,0.17c-0.08,0.18-0.27,0.3-0.49,0.31l-4.05,3.67l9,8.13 C422.12,38.49,422.13,38.5,422.14,38.51z M299.88,38.52l9.03,8.16l3.92-3.54l-8.82-7.96c-0.18-0.04-0.34-0.15-0.41-0.3 c-0.02-0.04-0.03-0.07-0.04-0.11l-4.49-4.05c-0.1-0.1-0.17-0.23-0.17-0.37c0.01-0.14,0.07-0.27,0.18-0.37l4.31-3.89l-3.92-3.53 l-4.05,3.65c0,0.06-0.01,0.11-0.04,0.17c-0.08,0.18-0.27,0.3-0.49,0.31l-4.06,3.67l9.01,8.13C299.85,38.5,299.87,38.51,299.88,38.52 z M13.67,35.04c-0.11,0.1-0.25,0.15-0.4,0.15H0.14v5H15.8l6.18-5.58l-3.91-3.54L13.67,35.04z M465.02,26.09l3.91,3.54l4.23-3.82 c0.11-0.09,0.25-0.15,0.4-0.15h15.31v-5h-17.83L465.02,26.09z M178.5,38.51l9.04,8.16l3.91-3.54l-8.82-7.96 c-0.18-0.04-0.34-0.15-0.41-0.3c-0.01-0.04-0.02-0.07-0.03-0.11l-4.49-4.05c-0.11-0.1-0.17-0.23-0.17-0.36 c0-0.14,0.05-0.27,0.16-0.37l4.32-3.9l-3.91-3.53l-4.05,3.65c-0.01,0.06-0.02,0.11-0.04,0.17c-0.09,0.18-0.28,0.3-0.5,0.31 l-4.05,3.67l9,8.13C178.48,38.49,178.49,38.5,178.5,38.51z M41.7,8.55c0.14,0,0.27,0.04,0.37,0.13l4.32,3.89l3.91-3.53l-6.05-5.47H0 v5h41.51C41.57,8.56,41.64,8.55,41.7,8.55z M442.76,3.56l-6.31,5.7c-0.07,0.14-0.18,0.25-0.33,0.29l-8.86,8l3.92,3.54l13.71-12.38 c0.16-0.15,0.43-0.21,0.65-0.15h43.33v-5C488.87,3.56,442.76,3.56,442.76,3.56z M282.44,20.67h-9.22l-6,5.42l3.92,3.54l4.31-3.9 c0.1-0.09,0.25-0.15,0.4-0.16c0.12,0.01,0.25,0.04,0.35,0.1h8.76l18.83-17c0.22-0.2,0.58-0.2,0.8,0l4.32,3.9l3.92-3.53l-8.64-7.8 l-8.89,8.03c-0.07,0.14-0.18,0.25-0.33,0.29l-12.13,10.96C282.73,20.62,282.59,20.67,282.44,20.67z M178.09,39.59l-9.03,8.16 c-0.01,0.02-0.03,0.03-0.04,0.04l-4.32,3.9c0.05,0.12,0.05,0.25-0.01,0.37c-0.08,0.19-0.29,0.32-0.52,0.32h-42.36 c-0.04,0-0.07,0.01-0.11,0.01H79.2c-0.23,0-0.44-0.13-0.52-0.32c-0.06-0.12-0.06-0.25-0.01-0.37l-3.95-3.57l-3.92,3.54l6.34,5.72 h46.28c0.04-0.01,0.07-0.01,0.11-0.01h42.7l15.78-14.25L178.09,39.59z M59.75,26.09l-3.92-3.53l-4.04,3.65 c-0.01,0.06-0.02,0.11-0.05,0.17c-0.08,0.18-0.27,0.3-0.49,0.31l-4.05,3.67l9,8.13c0.02,0.01,0.03,0.02,0.04,0.03l9.03,8.16 l3.92-3.54l-8.82-7.96c-0.18-0.04-0.34-0.15-0.41-0.3c-0.02-0.04-0.03-0.07-0.04-0.11l-4.48-4.05c-0.11-0.1-0.18-0.23-0.17-0.37 c0-0.14,0.06-0.27,0.17-0.37L59.75,26.09z M82.14,40.19h9.21l6.17-5.57l-3.92-3.54l-4.08,3.69c-0.01,0.04-0.02,0.07-0.04,0.11 c-0.08,0.19-0.29,0.31-0.52,0.31h-9.35L61.32,51.7c0.06,0.12,0.06,0.25,0,0.37c-0.09,0.19-0.29,0.32-0.52,0.32h-0.48 c-0.22,0-0.44-0.13-0.52-0.32c-0.06-0.12-0.06-0.25-0.02-0.37l-3.95-3.57l-3.91,3.54l8.63,7.8l4.32-3.9l0.01-0.01l0.01-0.01 l16.85-15.21C81.85,40.24,81.99,40.19,82.14,40.19z M38.8,20.67h-9.21l-6,5.42l3.91,3.54l4.31-3.9c0.1-0.09,0.25-0.15,0.4-0.16 c0.12,0.01,0.25,0.04,0.35,0.1h8.76l18.83-17c0.23-0.2,0.58-0.2,0.8,0l4.32,3.9l3.92-3.53l-8.64-7.8l-8.89,8.03 c-0.07,0.14-0.18,0.25-0.32,0.29L39.2,20.52C39.09,20.62,38.95,20.67,38.8,20.67z M65.28,21.1L78.99,8.72 c0.16-0.15,0.43-0.21,0.65-0.15h43.78c0.04,0,0.07-0.01,0.11-0.01h40.18c0.2-0.08,0.46-0.05,0.63,0.11l4.31,3.89l3.92-3.53 l-6.06-5.47h-44.98c-0.04,0.01-0.08,0.01-0.11,0.01H76.86l-6.32,5.7c-0.06,0.14-0.17,0.25-0.32,0.29l-8.86,8L65.28,21.1z M161.06,20.66h-9.21l-6,5.42l3.92,3.54l4.3-3.9c0.11-0.1,0.26-0.16,0.41-0.16c0.13,0.02,0.24,0.04,0.34,0.1h8.77l18.83-17 c0.22-0.2,0.57-0.2,0.79,0l4.33,3.9l3.91-3.53l-8.63-7.8l-8.85,7.99c0,0.01-0.01,0.03-0.02,0.05c-0.06,0.14-0.2,0.25-0.36,0.29 l-12.13,10.95C161.35,20.61,161.21,20.66,161.06,20.66z M299.47,39.6l-9.04,8.16c-0.01,0.02-0.02,0.03-0.04,0.04l-4.32,3.9 c0.06,0.12,0.06,0.25,0,0.37c-0.09,0.19-0.29,0.32-0.52,0.32h-40.32v-0.01h-43.77c-0.23,0-0.43-0.13-0.52-0.32 c-0.06-0.12-0.06-0.25-0.01-0.37l-3.95-3.57l-3.91,3.54l6.33,5.72h44.24v0.01h43.97l15.78-14.25L299.47,39.6z M448.04,40.18h9.21 l6.17-5.57l-3.92-3.54l-4.08,3.69c-0.01,0.04-0.02,0.07-0.04,0.11c-0.08,0.19-0.29,0.31-0.52,0.31h-9.35l-18.29,16.51 c0.06,0.12,0.06,0.25,0,0.37c-0.09,0.19-0.29,0.32-0.52,0.32h-0.48c-0.22,0-0.44-0.13-0.52-0.32c-0.06-0.12-0.06-0.25-0.01-0.37 l-3.96-3.57l-3.91,3.54l8.63,7.8l21.19-19.13C447.75,40.23,447.89,40.18,448.04,40.18z M421.73,39.59l-9.03,8.16l-0.04,0.04 l-4.32,3.9c0.05,0.12,0.05,0.25-0.01,0.37c-0.09,0.19-0.29,0.32-0.52,0.32h-42.36c-0.04,0-0.08,0.01-0.11,0.01h-42.51 c-0.22,0-0.43-0.13-0.52-0.32c-0.05-0.12-0.05-0.25,0-0.37l-3.95-3.57l-3.92,3.54l6.34,5.72h46.28c0.03-0.01,0.07-0.01,0.11-0.01 h42.7l15.78-14.25L421.73,39.59z M204.4,40.18h9.21l6.17-5.57l-3.91-3.54l-4.09,3.69c-0.01,0.04-0.02,0.07-0.03,0.11 c-0.09,0.19-0.3,0.31-0.52,0.31h-9.36l-18.28,16.51c0.05,0.12,0.05,0.25-0.01,0.37c-0.09,0.19-0.29,0.32-0.52,0.32h-0.47 c-0.23,0-0.44-0.13-0.53-0.32c-0.06-0.12-0.06-0.25-0.01-0.37l-3.95-3.57l-3.92,3.54l8.64,7.8L204,40.33 C204.11,40.23,204.25,40.18,204.4,40.18z M325.78,40.19h9.2l6.18-5.57l-3.92-3.54l-4.08,3.69c-0.01,0.04-0.02,0.07-0.04,0.11 c-0.09,0.19-0.29,0.31-0.52,0.31h-9.36L304.96,51.7c0.05,0.12,0.05,0.25,0,0.37c-0.09,0.19-0.3,0.32-0.52,0.32h-0.48 c-0.23,0-0.44-0.13-0.53-0.32c-0.05-0.12-0.06-0.25-0.01-0.37l-3.95-3.57l-3.92,3.54l8.64,7.8l4.32-3.9l0.02-0.02l16.85-15.21 C325.48,40.24,325.63,40.19,325.78,40.19z M187.54,21.09l13.71-12.38c0.16-0.15,0.43-0.21,0.65-0.15h41.46v0.01h41.79 c0.06-0.01,0.13-0.02,0.19-0.02c0.14,0,0.27,0.04,0.37,0.13l4.31,3.89l3.92-3.53l-6.05-5.47h-42.66V3.56h-46.11l-6.31,5.7 c-0.07,0.14-0.18,0.25-0.32,0.29l-8.87,8L187.54,21.09z M308.92,21.1l13.7-12.38c0.17-0.15,0.44-0.21,0.66-0.15h43.78 c0.03,0,0.07-0.01,0.11-0.01h40.17c0.21-0.08,0.46-0.05,0.63,0.11l4.32,3.89l3.91-3.53l-6.05-5.47h-44.99 c-0.03,0.01-0.07,0.01-0.11,0.01H320.5l-6.32,5.7c-0.06,0.14-0.18,0.25-0.32,0.29l-8.86,8L308.92,21.1z M259.44,40.19l6.18-5.58 l-3.92-3.54l-4.39,3.97c-0.11,0.1-0.25,0.15-0.4,0.15h-11.68v-0.01H230.1c-0.15,0-0.3-0.05-0.4-0.15l-2.61-2.35 c-0.01-0.01-0.03-0.01-0.04-0.02l-8.17-7.39c-0.02-0.01-0.03-0.02-0.03-0.04c-0.01,0-0.01-0.01-0.01-0.01l-5.06-4.56h-9.21 c-0.15,0-0.29-0.05-0.4-0.15l-7.19-6.49l-3.92,3.53l8.99,8.11h9.21c0.15,0,0.29,0.06,0.4,0.15l15.91,14.37h16.21v0.01 C243.78,40.19,259.44,40.19,259.44,40.19z M332.63,25.67c0.15,0,0.29,0.06,0.4,0.15l15.91,14.37h18.12 c0.04-0.01,0.07-0.01,0.11-0.01h14.53l6.18-5.58l-3.91-3.54l-4.4,3.97c-0.1,0.1-0.25,0.15-0.4,0.15h-13.58 c-0.04,0.01-0.08,0.01-0.12,0.01h-14c-0.15,0-0.29-0.05-0.4-0.15l-1.33-1.21l-3.46-3.12l-4.71-4.25l-0.01-0.01l-6.4-5.78h-9.2 c-0.14,0-0.3-0.05-0.41-0.15l-2.85-2.57c-0.01-0.01-0.02-0.02-0.03-0.03l-4.32-3.89l-3.91,3.53l8.98,8.11 C323.42,25.67,332.63,25.67,332.63,25.67z M313.49,26.69c-0.21-0.01-0.4-0.13-0.48-0.31c-0.03-0.06-0.04-0.11-0.04-0.16l-9.15-8.27 c-0.02-0.01-0.03-0.02-0.04-0.03l-4.31-3.89l-3.92,3.53l13.76,12.43c0.22,0.19,0.23,0.52,0.01,0.72l-4.32,3.9l3.92,3.54l8.63-7.79 L313.49,26.69z M273.4,40.19h9.19c0.15,0,0.31,0.05,0.42,0.15l7.01,6.34l3.92-3.54l-8.8-7.95h-9.34c-0.23,0-0.44-0.12-0.53-0.31 c-0.02-0.04-0.03-0.07-0.03-0.1l-8.96-8.09c-0.21-0.02-0.4-0.14-0.48-0.31c-0.02-0.05-0.03-0.1-0.04-0.15l-6.15-5.56h-14.38v-0.01 H227.4l-6.02,5.43l3.91,3.54l4.23-3.82c0.11-0.09,0.25-0.15,0.4-0.15h13.72v0.01h13.45c0.15,0,0.29,0.06,0.4,0.15l4.61,4.17 l4.72,4.26L273.4,40.19z M192.12,26.68c-0.21-0.02-0.41-0.14-0.49-0.31c-0.02-0.06-0.03-0.11-0.04-0.16l-9.15-8.27 c-0.01-0.01-0.02-0.02-0.03-0.03l-4.32-3.89l-3.91,3.53l13.76,12.43c0.22,0.2,0.22,0.51,0.01,0.71l-4.33,3.91l3.92,3.54l8.64-7.79 L192.12,26.68z M145.5,34.29l6.52,5.89h9.2c0.15,0,0.31,0.05,0.41,0.15l7.02,6.34l3.92-3.54l-8.81-7.95h-9.34 c-0.23,0-0.44-0.12-0.53-0.31c-0.01-0.04-0.02-0.07-0.03-0.1l-8.96-8.09c-0.21-0.02-0.39-0.14-0.47-0.31 c-0.03-0.05-0.04-0.1-0.04-0.15l-6.15-5.56h-16.43c-0.04,0.01-0.07,0.01-0.11,0.01h-16.57l-6,5.43l3.91,3.53l4.22-3.81 c0.11-0.09,0.25-0.15,0.4-0.15h15.76c0.04,0,0.07-0.01,0.11-0.01h12.18c0.15,0,0.29,0.06,0.4,0.15l4.61,4.16 c0,0.01,0.01,0.01,0.01,0.01l4.72,4.27L145.5,34.29z M389.13,34.29l6.53,5.89h9.19c0.15,0,0.32,0.05,0.42,0.15l7.02,6.34l3.92-3.54 l-8.81-7.95h-9.34c-0.23,0-0.44-0.12-0.53-0.31c-0.01-0.04-0.02-0.07-0.03-0.1l-8.96-8.09c-0.21-0.02-0.39-0.14-0.48-0.31 c-0.02-0.05-0.03-0.1-0.04-0.15l-6.15-5.56h-16.42c-0.04,0.01-0.08,0.01-0.11,0.01h-16.57l-6.01,5.43l3.92,3.53l4.22-3.81 c0.1-0.09,0.25-0.15,0.4-0.15h15.76c0.03,0,0.07-0.01,0.11-0.01h12.18c0.15,0,0.29,0.06,0.4,0.15l4.61,4.16c0,0.01,0,0.01,0.01,0.01 l4.72,4.27L389.13,34.29z M88.99,25.67c0.15,0,0.3,0.06,0.4,0.15l15.92,14.37h18.11c0.04-0.01,0.07-0.01,0.11-0.01h14.53l6.19-5.58 l-3.92-3.54l-4.4,3.97c-0.1,0.1-0.25,0.15-0.4,0.15h-13.58c-0.04,0.01-0.08,0.01-0.11,0.01h-14c-0.15,0-0.3-0.05-0.4-0.15 l-1.34-1.21l-3.46-3.12l-4.71-4.25l-0.01-0.01l-6.4-5.78h-9.19c-0.15,0-0.31-0.05-0.42-0.15l-2.84-2.57 c-0.02-0.01-0.03-0.02-0.04-0.03l-4.31-3.89l-3.92,3.53l8.98,8.11C79.78,25.67,88.99,25.67,88.99,25.67z M404.7,20.66h-9.21l-6,5.42 l3.91,3.54l4.31-3.9c0.11-0.1,0.26-0.16,0.41-0.16c0.13,0.02,0.24,0.04,0.34,0.1h8.76l18.84-17c0.22-0.2,0.57-0.2,0.79,0l4.32,3.9 l3.92-3.53l-8.64-7.8l-8.84,7.99c0,0.01-0.01,0.03-0.02,0.05c-0.07,0.14-0.2,0.25-0.36,0.29L405.1,20.51 C404.99,20.61,404.85,20.66,404.7,20.66z M435.76,26.68c-0.22-0.02-0.41-0.14-0.49-0.31c-0.02-0.06-0.04-0.11-0.04-0.16l-9.15-8.27 c-0.01-0.01-0.03-0.02-0.04-0.03l-4.31-3.89l-3.91,3.53l13.76,12.43c0.22,0.2,0.22,0.51,0.01,0.71l-4.33,3.91l3.92,3.54l8.63-7.79 L435.76,26.68z" fill="#E5C98B"/></g><g id="change1_2"><path d="M443.04,57.38l-6.34-5.72l3.92-3.54l3.95,3.57c-0.05,0.12-0.05,0.25,0.01,0.37 c0.08,0.19,0.29,0.32,0.52,0.32h43.77v-1.02h-43.08c-0.01-0.02-0.04-0.04-0.06-0.06l-4.32-3.91l6.86-6.19h9.21 c0.15,0,0.29-0.05,0.4-0.15l6.35-5.73l6.35,5.73c0.1,0.1,0.24,0.15,0.39,0.15h17.9v-1.02h-17.66l-15.92-14.37 c-0.1-0.09-0.25-0.15-0.4-0.15h-9.2l-8.99-8.11l3.92-3.53l7.19,6.49c0.11,0.1,0.25,0.15,0.4,0.15h9.21l5.06,4.56 c0,0.01,0.01,0.02,0.01,0.02c0.01,0.01,0.01,0.02,0.02,0.03l8.18,7.39c0.01,0.01,0.03,0.01,0.04,0.02l2.61,2.35 c0.1,0.1,0.24,0.15,0.39,0.15h15.14v-1.02h-14.9l-4.23-3.82l4.05-3.66h15.08v-1.02h-15.31c-0.15,0-0.29,0.06-0.4,0.15l-4.23,3.82 l-3.91-3.54l6.02-5.43h17.83v-1.02H470.8c-0.15,0-0.29,0.06-0.4,0.15l-6.17,5.58l-6.18-5.58c-0.1-0.09-0.25-0.15-0.4-0.15h-9.21 l-7.03-6.35l4.11-3.71h43.35V8.56h-43.33c-0.22-0.06-0.49,0-0.65,0.15l-13.71,12.38l-3.92-3.54l8.86-8 c0.15-0.04,0.26-0.15,0.33-0.29l6.31-5.7h46.11V2.54h-46.34c-0.15,0-0.3,0.06-0.4,0.15l-6.23,5.63l-9.05-8.17 c-0.22-0.2-0.57-0.2-0.79,0l-9.05,8.17l-6.23-5.63c-0.1-0.09-0.25-0.15-0.39-0.15h-45.34c-0.03,0-0.07,0.01-0.11,0.01h-44.68 c-0.15,0-0.29,0.06-0.39,0.15l-6.23,5.63l-9.05-8.17c-0.22-0.2-0.58-0.2-0.8,0l-9.04,8.17l-6.23-5.63c-0.1-0.09-0.25-0.15-0.4-0.15 h-42.21c-0.04-0.01-0.08-0.01-0.12-0.01h-46.9c-0.15,0-0.29,0.06-0.4,0.15l-6.23,5.63l-9.05-8.17c-0.22-0.2-0.57-0.2-0.79,0 l-9.05,8.17l-6.22-5.63c-0.11-0.09-0.25-0.15-0.4-0.15h-45.33c-0.04,0-0.08,0.01-0.11,0.01H76.63c-0.15,0-0.3,0.06-0.4,0.15L70,8.33 l-9.05-8.17c-0.22-0.2-0.57-0.2-0.8,0l-9.04,8.17L44.88,2.7c-0.1-0.09-0.25-0.15-0.39-0.15H0v1.02h44.25l6.05,5.47l-3.91,3.53 l-4.32-3.89c-0.1-0.09-0.23-0.13-0.37-0.13c-0.06,0-0.13,0.01-0.19,0.02H0v1.02h41.49l4.11,3.71l-7.03,6.35h-9.22 c-0.15,0-0.29,0.06-0.4,0.15l-6.17,5.58l-6.17-5.58c-0.11-0.09-0.25-0.15-0.4-0.15H0v1.02h15.97l6.15,5.56 c0.01,0.05,0.02,0.1,0.04,0.15c0.09,0.17,0.27,0.29,0.48,0.31l8.96,8.09c0.01,0.03,0.02,0.06,0.03,0.1c0.09,0.19,0.3,0.31,0.53,0.31 h9.34l8.81,7.95l-3.92,3.54l-7.02-6.34c-0.1-0.1-0.27-0.15-0.42-0.15h-9.19l-6.58-5.94l-4.71-4.26l-4.62-4.17 c-0.11-0.09-0.25-0.15-0.4-0.15H0v1.02h13.22l4.05,3.66l-4.23,3.82H0v7.04h16.03c0.15,0,0.3-0.05,0.4-0.15l6.35-5.73l6.35,5.73 c0.11,0.1,0.25,0.15,0.4,0.15h9.21l6.86,6.19l-4.32,3.91c-0.03,0.02-0.05,0.04-0.07,0.06H0v1.02h41.91c0.23,0,0.43-0.13,0.52-0.32 c0.06-0.12,0.06-0.25,0.01-0.37l4.32-3.9c0.01-0.01,0.02-0.02,0.04-0.04l9.03-8.16l3.92,3.54L43.97,57.39H0v1.02h44.2 c0.15,0,0.3-0.06,0.4-0.15l6.51-5.88l9.04,8.17c0.11,0.09,0.25,0.15,0.4,0.15s0.3-0.06,0.4-0.15L70,52.38l6.51,5.88 c0.11,0.09,0.25,0.15,0.4,0.15h46.62c0.04,0,0.08-0.01,0.11-0.01h42.83c0.14,0,0.29-0.06,0.39-0.15l6.51-5.88l9.05,8.17 c0.1,0.09,0.25,0.15,0.4,0.15s0.29-0.06,0.39-0.15l9.05-8.17l6.51,5.88c0.11,0.09,0.25,0.15,0.4,0.15h43.79 c0.03,0.01,0.07,0.01,0.11,0.01h44.77c0.15,0,0.29-0.06,0.4-0.15l6.51-5.88l9.04,8.17c0.11,0.09,0.25,0.15,0.4,0.15 s0.29-0.06,0.4-0.15l9.05-8.17l6.51,5.88c0.1,0.09,0.25,0.15,0.4,0.15h46.62c0.04,0,0.08-0.01,0.11-0.01h42.82 c0.15,0,0.3-0.06,0.4-0.15l6.51-5.88l9.04,8.17c0.11,0.09,0.25,0.15,0.4,0.15s0.3-0.06,0.4-0.15l9.05-8.17l6.51,5.88 c0.11,0.09,0.25,0.15,0.4,0.15h46.06v-1.02L443.04,57.38L443.04,57.38z M15.8,40.19H0.14v-5h13.13c0.15,0,0.29-0.05,0.4-0.15 l4.4-3.97l3.91,3.54L15.8,40.19z M435.9,18.27l9.15,8.26c0.11,0.1,0.25,0.15,0.4,0.15h9.21l4.06,3.66l-4.23,3.82h-9.22 c-0.15,0-0.29,0.06-0.4,0.15l-8.97,8.11l-3.93-3.55l9.04-8.16c0.22-0.2,0.22-0.53,0-0.72l-4.62-4.18c-0.02-0.02-0.04-0.03-0.06-0.05 c-0.02-0.01-0.03-0.03-0.04-0.04l-4.33-3.9L435.9,18.27z M422.14,38.51c-0.01-0.01-0.02-0.02-0.04-0.03l-9-8.13l4.05-3.67 c0.22-0.01,0.41-0.13,0.49-0.31c0.03-0.06,0.04-0.11,0.05-0.17l4.04-3.65l3.92,3.53l-4.32,3.9c-0.11,0.1-0.16,0.23-0.16,0.37 c0,0.13,0.06,0.26,0.17,0.36l4.49,4.05c0,0.04,0.01,0.07,0.03,0.11c0.07,0.15,0.23,0.26,0.41,0.3l8.82,7.96l-3.92,3.54L422.14,38.51 z M430.38,47.39l-3.93,3.55l-3.93-3.55l3.93-3.55L430.38,47.39z M299.88,38.52c-0.01-0.01-0.03-0.02-0.04-0.03l-9.01-8.13l4.06-3.67 c0.22-0.01,0.41-0.13,0.49-0.31c0.03-0.06,0.04-0.11,0.04-0.17l4.05-3.65l3.92,3.53l-4.31,3.89c-0.11,0.1-0.17,0.23-0.18,0.37 c0,0.14,0.07,0.27,0.17,0.37l4.49,4.05c0.01,0.04,0.02,0.07,0.04,0.11c0.07,0.15,0.23,0.26,0.41,0.3l8.82,7.96l-3.92,3.54 L299.88,38.52z M308.12,47.4l-3.93,3.55l-3.93-3.55l3.93-3.55L308.12,47.4z M178.5,38.51c-0.01-0.01-0.02-0.02-0.04-0.03l-9-8.13 l4.05-3.67c0.22-0.01,0.41-0.13,0.5-0.31c0.02-0.06,0.03-0.11,0.04-0.17l4.05-3.65l3.91,3.53l-4.32,3.9 c-0.11,0.1-0.16,0.23-0.16,0.37c0,0.13,0.06,0.26,0.17,0.36l4.49,4.05c0.01,0.04,0.02,0.07,0.03,0.11c0.07,0.15,0.23,0.26,0.41,0.3 l8.82,7.96l-3.91,3.54L178.5,38.51z M186.75,47.39l-3.93,3.55l-3.93-3.55l3.93-3.55L186.75,47.39z M65.68,30.71 c0.22-0.2,0.21-0.53-0.01-0.72L51.91,17.56l3.92-3.53l4.31,3.89c0.01,0.01,0.03,0.02,0.04,0.03l9.15,8.27c0,0.05,0.02,0.1,0.04,0.16 c0.08,0.18,0.27,0.3,0.49,0.31l4.05,3.67l-8.63,7.79l-3.92-3.54L65.68,30.71z M60.55,33.9l-3.93-3.55l3.93-3.55l3.93,3.55 L60.55,33.9z M56.62,13.3l3.93-3.55l3.94,3.55l-3.94,3.55L56.62,13.3z M75.11,30.72c0.22-0.2,0.22-0.53,0-0.72l-4.62-4.18 c-0.02-0.02-0.04-0.03-0.06-0.05c-0.02-0.01-0.03-0.03-0.05-0.04l-4.32-3.9L70,18.28l9.15,8.26c0.11,0.1,0.25,0.15,0.4,0.15h9.21 l4.06,3.66l-4.23,3.82h-9.22c-0.15,0-0.29,0.06-0.4,0.15L70,42.43l-3.93-3.55L75.11,30.72z M89.39,25.82 c-0.1-0.09-0.25-0.15-0.4-0.15h-9.21l-8.98-8.11l3.92-3.53l4.31,3.89c0.01,0.01,0.02,0.02,0.04,0.03l2.84,2.57 c0.11,0.1,0.27,0.15,0.42,0.15h9.19l6.4,5.78l0.01,0.01l4.71,4.25l3.46,3.12l1.34,1.21c0.1,0.1,0.25,0.15,0.4,0.15h14 c0.03,0,0.07,0,0.11-0.01h13.58c0.15,0,0.3-0.05,0.4-0.15l4.4-3.97l3.92,3.54l-6.19,5.58h-14.53c-0.04,0-0.07,0-0.11,0.01h-18.11 L89.39,25.82z M98.33,25.38l-6.18-5.58c-0.1-0.09-0.25-0.15-0.39-0.15h-9.21l-2.71-2.44c-0.01-0.01-0.02-0.02-0.04-0.03l-4.29-3.88 l4.11-3.71h43.91c0.04,0,0.08,0,0.11-0.01h40.11l4.11,3.71l-7.03,6.35h-9.22c-0.14,0-0.29,0.06-0.39,0.15l-6.18,5.58l-6.17-5.58 c-0.11-0.09-0.25-0.15-0.4-0.15H121.7c-0.04,0-0.08,0.01-0.11,0.01H104.9c-0.15,0-0.29,0.06-0.4,0.15L98.33,25.38z M103.84,30.35 l4.05-3.66h15.64c0.04,0,0.08,0,0.11-0.01h11.84l4.05,3.66l-4.23,3.82h-13.46c-0.04,0-0.08,0.01-0.11,0.01h-13.66l-1.18-1.06 L103.84,30.35z M104.67,41.06c0.11,0.1,0.25,0.15,0.4,0.15h18.46c0.04,0,0.08,0,0.11-0.01h14.66c0.15,0,0.29-0.05,0.4-0.15 l6.34-5.73l6.35,5.73c0.11,0.1,0.25,0.15,0.4,0.15H161l6.86,6.19l-4.32,3.91c-0.02,0.02-0.05,0.04-0.06,0.06H121.7 c-0.04,0-0.08,0-0.11,0.01h-41.7c-0.02-0.02-0.04-0.04-0.06-0.06l-4.32-3.91l6.86-6.19h9.21c0.15,0,0.29-0.05,0.4-0.15l6.35-5.73 L104.67,41.06z M161.63,40.33c-0.1-0.1-0.26-0.15-0.41-0.15h-9.2l-6.52-5.89l-0.05-0.04l-4.72-4.27c0,0-0.01,0-0.01-0.01l-4.61-4.16 c-0.11-0.09-0.25-0.15-0.4-0.15h-12.18c-0.04,0-0.07,0.01-0.11,0.01h-15.76c-0.15,0-0.29,0.06-0.4,0.15l-4.22,3.81l-3.91-3.53 l6-5.43h16.57c0.04,0,0.07,0,0.11-0.01h16.43l6.15,5.56c0,0.05,0.01,0.1,0.04,0.15c0.08,0.17,0.26,0.29,0.47,0.31l8.96,8.09 c0.01,0.03,0.02,0.06,0.03,0.1c0.09,0.19,0.3,0.31,0.53,0.31h9.34l8.81,7.95l-3.92,3.54L161.63,40.33z M164.4,34.31 c-0.11-0.09-0.25-0.15-0.4-0.15h-9.22l-4.23-3.82l4.06-3.66h9.21c0.15,0,0.29-0.05,0.4-0.15l9.15-8.26l3.94,3.55l-4.32,3.9 c-0.02,0.01-0.03,0.03-0.05,0.04c-0.02,0.02-0.04,0.03-0.06,0.05l-4.62,4.18c-0.22,0.19-0.22,0.52,0,0.72l9.04,8.16l-3.93,3.55 L164.4,34.31z M182.41,17.91c0.01,0.01,0.02,0.02,0.03,0.03l9.15,8.27c0.01,0.05,0.02,0.1,0.04,0.16c0.08,0.17,0.28,0.29,0.49,0.31 l4.06,3.67l-8.64,7.79l-3.92-3.54l4.33-3.91c0.21-0.2,0.21-0.51-0.01-0.71l-13.76-12.43l3.91-3.53L182.41,17.91z M178.88,13.29 l3.94-3.55l3.93,3.55l-3.93,3.55L178.88,13.29z M182.82,33.89l-3.93-3.55l3.93-3.55l3.93,3.55L182.82,33.89z M188.33,38.87 l9.04-8.16c0.22-0.2,0.22-0.53,0-0.72l-4.62-4.18c-0.02-0.02-0.04-0.03-0.06-0.05c-0.01-0.01-0.03-0.03-0.04-0.04l-4.32-3.9 l3.93-3.55l9.16,8.26c0.1,0.1,0.24,0.15,0.39,0.15h9.21l4.06,3.66l-4.23,3.82h-9.21c-0.15,0-0.3,0.06-0.4,0.15l-8.98,8.11 L188.33,38.87z M211.66,25.81c-0.11-0.09-0.25-0.15-0.4-0.15h-9.21l-8.99-8.11l3.92-3.53l7.19,6.49c0.11,0.1,0.25,0.15,0.4,0.15 h9.21l5.06,4.56c0,0,0,0.01,0.01,0.01c0,0.02,0.01,0.03,0.03,0.04l8.17,7.39c0.01,0.01,0.03,0.01,0.04,0.02l2.61,2.35 c0.1,0.1,0.25,0.15,0.4,0.15h15.13v0.01h11.68c0.15,0,0.29-0.05,0.4-0.15l4.39-3.97l3.92,3.54l-6.18,5.58h-15.66v-0.01h-16.21 L211.66,25.81z M220.59,25.37l-6.18-5.58c-0.1-0.09-0.24-0.15-0.39-0.15h-9.21l-7.04-6.35l4.11-3.71h40.8 c0.03,0.01,0.07,0.01,0.11,0.01h42.34l4.11,3.71l-7.04,6.35h-9.21c-0.15,0-0.29,0.06-0.4,0.15l-6.17,5.58l-6.18-5.58 c-0.1-0.09-0.25-0.15-0.4-0.15h-13.93c-0.04-0.01-0.08-0.01-0.12-0.01h-18.63c-0.15,0-0.29,0.06-0.39,0.15L220.59,25.37z M226.1,30.34l4.06-3.66h12.8c0.03,0.01,0.07,0.01,0.11,0.01h13.78l4.06,3.66l-4.23,3.82h-10.77c-0.04-0.01-0.08-0.01-0.12-0.01 h-15.46L226.1,30.34z M226.94,41.05c0.1,0.1,0.25,0.15,0.4,0.15h15.76c0.03,0.01,0.07,0.01,0.11,0.01h16.46 c0.15,0,0.29-0.05,0.4-0.15l6.35-5.73l6.35,5.73c0.1,0.1,0.25,0.15,0.4,0.15h9.21l6.85,6.19l-4.32,3.91l-0.06,0.06h-38.94 c-0.04-0.01-0.08-0.01-0.12-0.01h-43.63c-0.02-0.02-0.04-0.04-0.07-0.06l-4.32-3.91l6.86-6.19h9.21c0.15,0,0.29-0.05,0.4-0.15 l6.35-5.73L226.94,41.05z M283.01,40.34c-0.11-0.1-0.27-0.15-0.42-0.15h-9.19l-6.58-5.94l-4.72-4.26l-4.61-4.17 c-0.11-0.09-0.25-0.15-0.4-0.15h-13.45v-0.01h-13.72c-0.15,0-0.29,0.06-0.4,0.15l-4.23,3.82l-3.91-3.54l6.02-5.43h17.83v0.01h14.38 l6.15,5.56c0.01,0.05,0.02,0.1,0.04,0.15c0.08,0.17,0.27,0.29,0.48,0.31l8.96,8.09c0,0.03,0.01,0.06,0.03,0.1 c0.09,0.19,0.3,0.31,0.53,0.31h9.34l8.8,7.95l-3.92,3.54L283.01,40.34z M292.44,40.34l-6.67-6.02c-0.11-0.09-0.25-0.15-0.4-0.15 h-9.21l-4.23-3.82l4.06-3.66h9.21c0.15,0,0.29-0.05,0.39-0.15l9.16-8.26l3.93,3.55l-4.32,3.9c-0.01,0.01-0.03,0.03-0.04,0.04 c-0.02,0.02-0.05,0.03-0.06,0.05L289.64,30c-0.22,0.19-0.22,0.52,0,0.72l9.04,8.16l-3.93,3.55L292.44,40.34z M303.78,17.92 c0.01,0.01,0.02,0.02,0.04,0.03l9.15,8.27c0,0.05,0.01,0.1,0.04,0.16c0.08,0.18,0.27,0.3,0.48,0.31l4.06,3.67l-8.63,7.79L305,34.61 l4.32-3.9c0.22-0.2,0.21-0.53-0.01-0.72l-13.76-12.43l3.92-3.53L303.78,17.92z M300.26,13.3l3.93-3.55l3.94,3.55l-3.94,3.55 L300.26,13.3z M304.19,33.9l-3.93-3.55l3.93-3.55l3.93,3.55L304.19,33.9z M309.7,38.88l9.05-8.16c0.22-0.2,0.22-0.53,0-0.72 l-4.62-4.18c-0.02-0.02-0.04-0.03-0.06-0.05c-0.02-0.01-0.03-0.03-0.05-0.04l-4.32-3.9l3.94-3.55l9.15,8.26 c0.1,0.1,0.25,0.15,0.4,0.15h9.21l4.05,3.66l-4.23,3.82h-9.21c-0.15,0-0.29,0.06-0.4,0.15l-8.98,8.11L309.7,38.88z M333.03,25.82 c-0.11-0.09-0.25-0.15-0.4-0.15h-9.21l-8.98-8.11l3.91-3.53l4.32,3.89c0.01,0.01,0.02,0.02,0.03,0.03l2.85,2.57 c0.11,0.1,0.27,0.15,0.41,0.15h9.2l6.4,5.78l0.01,0.01l4.71,4.25l3.46,3.12l1.33,1.21c0.11,0.1,0.25,0.15,0.4,0.15h14 c0.04,0,0.08,0,0.12-0.01h13.58c0.15,0,0.3-0.05,0.4-0.15l4.4-3.97l3.91,3.54l-6.18,5.58h-14.53c-0.04,0-0.07,0-0.11,0.01h-18.12 L333.03,25.82z M341.97,25.38l-6.18-5.58c-0.1-0.09-0.25-0.15-0.4-0.15h-9.21l-2.7-2.44c-0.01-0.01-0.03-0.02-0.04-0.03l-4.3-3.88 l4.12-3.71h43.91c0.04,0,0.08,0,0.11-0.01h40.11l4.11,3.71l-7.03,6.35h-9.22c-0.15,0-0.29,0.06-0.4,0.15l-6.17,5.58l-6.17-5.58 c-0.11-0.09-0.25-0.15-0.4-0.15h-16.77c-0.04,0-0.08,0.01-0.12,0.01h-16.68c-0.15,0-0.29,0.06-0.4,0.15L341.97,25.38z M347.48,30.35 l4.05-3.66h15.64c0.04,0,0.08,0,0.11-0.01h11.84l4.05,3.66l-4.23,3.82h-13.47c-0.03,0-0.07,0.01-0.11,0.01h-13.65l-1.18-1.06 L347.48,30.35z M348.31,41.06c0.11,0.1,0.25,0.15,0.4,0.15h18.46c0.04,0,0.07,0,0.11-0.01h14.65c0.15,0,0.3-0.05,0.4-0.15l6.35-5.73 l6.35,5.73c0.11,0.1,0.25,0.15,0.4,0.15h9.21l6.86,6.19l-4.32,3.91c-0.03,0.02-0.05,0.04-0.06,0.06h-41.78c-0.04,0-0.08,0-0.11,0.01 h-41.7l-0.06-0.06l-4.32-3.91l6.86-6.19h9.21c0.15,0,0.29-0.05,0.4-0.15l6.34-5.73L348.31,41.06z M405.27,40.33 c-0.1-0.1-0.27-0.15-0.42-0.15h-9.19l-6.53-5.89l-0.04-0.04l-4.72-4.27c-0.01,0-0.01,0-0.01-0.01l-4.61-4.16 c-0.11-0.09-0.25-0.15-0.4-0.15h-12.18c-0.04,0-0.08,0.01-0.11,0.01H351.3c-0.15,0-0.3,0.06-0.4,0.15l-4.22,3.81l-3.92-3.53 l6.01-5.43h16.57c0.03,0,0.07,0,0.11-0.01h16.42l6.15,5.56c0.01,0.05,0.02,0.1,0.04,0.15c0.09,0.17,0.27,0.29,0.48,0.31l8.96,8.09 c0.01,0.03,0.02,0.06,0.03,0.1c0.09,0.19,0.3,0.31,0.53,0.31h9.34l8.81,7.95l-3.92,3.54L405.27,40.33z M408.03,34.31 c-0.1-0.09-0.25-0.15-0.4-0.15h-9.21l-4.23-3.82l4.06-3.66h9.21c0.15,0,0.29-0.05,0.4-0.15l9.15-8.26l3.93,3.55l-4.32,3.9 l-0.04,0.04c-0.02,0.02-0.04,0.03-0.06,0.05l-4.62,4.18c-0.22,0.19-0.22,0.52,0,0.72l9.04,8.16l-3.93,3.55L408.03,34.31z M426.45,26.79l3.93,3.55l-3.93,3.55l-3.93-3.55L426.45,26.79z M435.23,26.21c0,0.05,0.02,0.1,0.04,0.16 c0.08,0.17,0.27,0.29,0.49,0.31l4.05,3.67l-8.63,7.79l-3.92-3.54l4.33-3.91c0.21-0.2,0.21-0.51-0.01-0.71l-13.76-12.43l3.91-3.53 l4.31,3.89c0.01,0.01,0.03,0.02,0.04,0.03L435.23,26.21z M426.45,16.84l-3.93-3.55l3.93-3.55l3.94,3.55L426.45,16.84z M417.23,9.56 c0.16-0.04,0.29-0.15,0.36-0.29c0.01-0.02,0.02-0.04,0.02-0.05l8.84-7.99l8.64,7.8l-3.92,3.53l-4.32-3.9c-0.22-0.2-0.57-0.2-0.79,0 l-18.84,17h-8.76c-0.1-0.06-0.21-0.08-0.34-0.1c-0.15,0-0.3,0.06-0.41,0.16l-4.31,3.9l-3.91-3.54l6-5.42h9.21 c0.15,0,0.29-0.05,0.4-0.15L417.23,9.56z M313.86,9.56c0.14-0.04,0.26-0.15,0.32-0.29l6.32-5.7h44.55c0.04,0,0.08,0,0.11-0.01h44.99 l6.05,5.47l-3.91,3.53l-4.32-3.89c-0.17-0.16-0.42-0.19-0.63-0.11h-40.17c-0.04,0-0.08,0.01-0.11,0.01h-43.78 c-0.22-0.06-0.49,0-0.66,0.15l-13.7,12.38L305,17.56L313.86,9.56z M294.97,9.56c0.15-0.04,0.26-0.15,0.33-0.29l8.89-8.03l8.64,7.8 l-3.92,3.53l-4.32-3.9c-0.22-0.2-0.58-0.2-0.8,0l-18.83,17h-8.76c-0.1-0.06-0.23-0.09-0.35-0.1c-0.15,0.01-0.3,0.07-0.4,0.16 l-4.31,3.9l-3.92-3.54l6-5.42h9.22c0.15,0,0.29-0.05,0.4-0.15L294.97,9.56z M192.49,9.55c0.14-0.04,0.25-0.15,0.32-0.29l6.31-5.7 h46.11v0.01h42.66l6.05,5.47l-3.92,3.53l-4.31-3.89c-0.1-0.09-0.23-0.13-0.37-0.13c-0.06,0-0.13,0.01-0.19,0.02h-41.79V8.56H201.9 c-0.22-0.06-0.49,0-0.65,0.15l-13.71,12.38l-3.92-3.54L192.49,9.55z M173.59,9.56c0.16-0.04,0.3-0.15,0.36-0.29 c0.01-0.02,0.02-0.04,0.02-0.05l8.85-7.99l8.63,7.8l-3.91,3.53l-4.33-3.9c-0.22-0.2-0.57-0.2-0.79,0l-18.83,17h-8.77 c-0.1-0.06-0.21-0.08-0.34-0.1c-0.15,0-0.3,0.06-0.41,0.16l-4.3,3.9l-3.92-3.54l6-5.42h9.21c0.15,0,0.29-0.05,0.4-0.15L173.59,9.56z M70.22,9.56c0.15-0.04,0.26-0.15,0.32-0.29l6.32-5.7h44.56c0.03,0,0.07,0,0.11-0.01h44.98l6.06,5.47l-3.92,3.53l-4.31-3.89 c-0.17-0.16-0.43-0.19-0.63-0.11h-40.18c-0.04,0-0.07,0.01-0.11,0.01H79.64c-0.22-0.06-0.49,0-0.65,0.15L65.28,21.1l-3.92-3.54 L70.22,9.56z M23.59,26.09l6-5.42h9.21c0.15,0,0.29-0.05,0.4-0.15L51.34,9.56c0.14-0.04,0.25-0.15,0.32-0.29l8.89-8.03l8.64,7.8 l-3.92,3.53l-4.32-3.9c-0.22-0.2-0.57-0.2-0.8,0l-18.83,17h-8.76c-0.1-0.06-0.23-0.09-0.35-0.1c-0.15,0.01-0.3,0.07-0.4,0.16 l-4.31,3.9L23.59,26.09z M51.11,42.43l-2.31-2.09l-6.67-6.02c-0.1-0.09-0.25-0.15-0.4-0.15h-9.21l-4.23-3.82l4.06-3.66h9.21 c0.15,0,0.29-0.05,0.4-0.15l9.15-8.26l3.93,3.55l-4.32,3.9l-0.04,0.04c-0.02,0.02-0.04,0.03-0.06,0.05L46,30 c-0.22,0.19-0.22,0.52,0,0.72l9.04,8.16L51.11,42.43z M56.24,38.52c-0.01-0.01-0.02-0.02-0.04-0.03l-9-8.13l4.05-3.67 c0.22-0.01,0.41-0.13,0.49-0.31c0.03-0.06,0.04-0.11,0.05-0.17l4.04-3.65l3.92,3.53l-4.31,3.89c-0.11,0.1-0.17,0.23-0.17,0.37 c-0.01,0.14,0.06,0.27,0.17,0.37l4.48,4.05c0.01,0.04,0.02,0.07,0.04,0.11c0.07,0.15,0.23,0.26,0.41,0.3l8.82,7.96l-3.92,3.54 L56.24,38.52z M60.55,43.85l3.93,3.55l-3.93,3.55l-3.93-3.55L60.55,43.85z M64.89,55.55l-0.01,0.01l-0.01,0.01l-4.32,3.9l-8.63-7.8 l3.91-3.54l3.95,3.57c-0.04,0.12-0.04,0.25,0.02,0.37c0.08,0.19,0.3,0.32,0.52,0.32h0.48c0.23,0,0.43-0.13,0.52-0.32 c0.06-0.12,0.06-0.25,0-0.37l18.29-16.51h9.35c0.23,0,0.44-0.12,0.52-0.31c0.02-0.04,0.03-0.07,0.04-0.11l4.08-3.69l3.92,3.54 l-6.17,5.57h-9.21c-0.15,0-0.29,0.05-0.4,0.15L64.89,55.55z M166.23,57.38h-42.7c-0.04,0-0.07,0-0.11,0.01H77.14l-6.34-5.72 l3.92-3.54l3.95,3.57c-0.05,0.12-0.05,0.25,0.01,0.37c0.08,0.19,0.29,0.32,0.52,0.32h42.5c0.04,0,0.07-0.01,0.11-0.01h42.36 c0.23,0,0.44-0.13,0.52-0.32c0.06-0.12,0.06-0.25,0.01-0.37l4.32-3.9c0.01-0.01,0.03-0.02,0.04-0.04l9.03-8.16l3.92,3.54 L166.23,57.38z M182.82,59.46l-8.64-7.8l3.92-3.54l3.95,3.57c-0.05,0.12-0.05,0.25,0.01,0.37c0.09,0.19,0.3,0.32,0.53,0.32h0.47 c0.23,0,0.43-0.13,0.52-0.32c0.06-0.12,0.06-0.25,0.01-0.37l18.28-16.51h9.36c0.22,0,0.43-0.12,0.52-0.31 c0.01-0.04,0.02-0.07,0.03-0.11l4.09-3.69l3.91,3.54l-6.17,5.57h-9.21c-0.15,0-0.29,0.05-0.4,0.15L182.82,59.46z M287.61,57.39 h-43.97v-0.01H199.4l-6.33-5.72l3.91-3.54l3.95,3.57c-0.05,0.12-0.05,0.25,0.01,0.37c0.09,0.19,0.29,0.32,0.52,0.32h43.77v0.01 h40.32c0.23,0,0.43-0.13,0.52-0.32c0.06-0.12,0.06-0.25,0-0.37l4.32-3.9c0.02-0.01,0.03-0.02,0.04-0.04l9.04-8.16l3.92,3.54 L287.61,57.39z M308.53,55.55l-0.02,0.02l-4.32,3.9l-8.64-7.8l3.92-3.54l3.95,3.57c-0.05,0.12-0.04,0.25,0.01,0.37 c0.09,0.19,0.3,0.32,0.53,0.32h0.48c0.22,0,0.43-0.13,0.52-0.32c0.05-0.12,0.05-0.25,0-0.37l18.28-16.51h9.36 c0.23,0,0.43-0.12,0.52-0.31c0.02-0.04,0.03-0.07,0.04-0.11l4.08-3.69l3.92,3.54l-6.18,5.57h-9.2c-0.15,0-0.3,0.05-0.4,0.15 L308.53,55.55z M409.87,57.38h-42.7c-0.04,0-0.08,0-0.11,0.01h-46.28l-6.34-5.72l3.92-3.54l3.95,3.57c-0.05,0.12-0.05,0.25,0,0.37 c0.09,0.19,0.3,0.32,0.52,0.32h42.51c0.03,0,0.07-0.01,0.11-0.01h42.36c0.23,0,0.43-0.13,0.52-0.32c0.06-0.12,0.06-0.25,0.01-0.37 l4.32-3.9l0.04-0.04l9.03-8.16l3.92,3.54L409.87,57.38z M426.45,59.46l-8.63-7.8l3.91-3.54l3.96,3.57 c-0.05,0.12-0.05,0.25,0.01,0.37c0.08,0.19,0.3,0.32,0.52,0.32h0.48c0.23,0,0.43-0.13,0.52-0.32c0.06-0.12,0.06-0.25,0-0.37 l18.29-16.51h9.35c0.23,0,0.44-0.12,0.52-0.31c0.02-0.04,0.03-0.07,0.04-0.11l4.08-3.69l3.92,3.54l-6.17,5.57h-9.21 c-0.15,0-0.29,0.05-0.4,0.15L426.45,59.46z" fill="#055592"/></g></svg>